<svg width="50" height="50" viewBox="0 0 50 50" fill="none" xmlns="http://www.w3.org/2000/svg">
<circle cx="25" cy="25" r="25" fill="white"/>
<circle cx="25" cy="25" r="23.25" stroke="#E0E2E7" stroke-width="0.5" stroke-dasharray="1 1"/>
<circle cx="25" cy="25" r="21.5" fill="white"/>
<rect x="8" y="19.3497" width="33" height="22" rx="1" fill="#107C10"/>
<rect x="8.55008" y="19.8998" width="31.9" height="20.9" fill="white"/>
<rect x="9.10016" y="20.4498" width="30.8" height="19.8" fill="#CACCDC"/>
<mask id="mask0_585_805" style="mask-type:alpha" maskUnits="userSpaceOnUse" x="9" y="20" width="31" height="21">
<rect x="9.0997" y="20.4501" width="30.8" height="19.8" fill="#CACCDC"/>
</mask>
<g mask="url(#mask0_585_805)">
<path d="M32.655 42.7951L31.8772 42.0172L42.7666 31.1278L43.5444 31.9056L32.655 42.7951Z" fill="white"/>
<path d="M31.4882 41.6283L31.0993 41.2394L41.9888 30.35L42.3777 30.7389L31.4882 41.6283Z" fill="white"/>
</g>
<rect x="17.8502" y="41.85" width="13.3" height="1.75" fill="#C4C4C4" stroke="#919399"/>
<rect x="15.4248" y="44.9251" width="18.15" height="0.55" fill="#C4C4C4" stroke="#919399" stroke-width="0.55"/>
<line x1="19.0004" y1="42.4999" x2="30.0004" y2="42.4999" stroke="#107C10"/>
<path d="M11.7997 8.62832L12.9247 8.40332H13.1497L13.3747 8.85332H13.8247L14.2747 9.75332V11.1033L14.4997 11.3283L14.2747 11.7783L14.0497 12.0033V12.2283L13.8247 12.9033L13.5997 13.3533L14.0497 14.2533L15.8497 15.1533L16.2997 16.0533H9.0997L9.3247 15.3783L9.7747 14.9283L10.8997 14.4783L11.3497 14.0283L11.7997 13.3533L11.3497 12.0033L11.1247 11.5533V9.52832L11.7997 8.62832Z" fill="#919399"/>
<path d="M13.7585 16.0665H9.0997C9.0997 15.1205 9.9458 14.742 10.7919 14.4582C11.638 14.1744 11.685 13.7959 11.779 13.5121C11.8542 13.2851 11.7477 13.0075 11.685 12.8972C11.497 12.8026 11.403 12.6134 11.403 12.3295C11.403 12.0457 11.403 12.0457 11.215 11.9984C11.0269 11.9511 10.9329 11.5254 10.9329 11.2888C10.9329 11.0523 11.309 11.1942 11.1209 10.9577C10.9329 10.7212 10.9799 9.49131 11.309 9.01827C11.638 8.54523 12.2491 8.40333 12.6251 8.40332C13.1268 8.40331 13.4556 8.6083 13.5652 8.78175C14.4114 8.78175 14.4665 10.721 14.2785 10.9576C14.0904 11.1941 14.4665 11.0522 14.4665 11.2887C14.4665 11.5252 14.3725 11.9509 14.1844 11.9983C13.9964 12.0456 13.9964 12.0456 13.9964 12.3294C13.9964 12.6132 13.9024 12.8024 13.7144 12.897C13.6517 13.0074 13.5452 13.2849 13.6204 13.512C13.7144 13.7958 13.7614 14.1742 14.6075 14.4581C15.4536 14.7419 16.2997 15.1203 16.2997 16.0664H11.6409" stroke="#919399" stroke-width="0.818182" stroke-linecap="round" stroke-linejoin="round"/>
<path d="M22.8686 24.2102L25.1681 23.7502H25.628L26.0879 24.6701H27.0077L27.9276 26.5097V29.2691L28.3875 29.729L27.9276 30.6488L27.4677 31.1088V31.5687L27.0077 32.9484L26.5478 33.8682L27.4677 35.7078L31.1469 37.5474L32.0667 39.3871H17.3497L17.8096 38.0074L18.7294 37.0875L21.029 36.1677L21.9488 35.2479L22.8686 33.8682L21.9488 31.1088L21.4889 30.1889V26.0498L22.8686 24.2102Z" fill="white"/>
<path d="M26.8725 39.4141H17.3497C17.3497 37.4803 19.0792 36.7067 20.8086 36.1266C22.5381 35.5465 22.6342 34.7729 22.8263 34.1928C22.9801 33.7287 22.7623 33.1614 22.6342 32.9358C22.2498 32.7424 22.0577 32.3557 22.0577 31.7755C22.0577 31.1954 22.0577 31.1954 21.6734 31.0987C21.289 31.002 21.0969 30.1318 21.0969 29.6483C21.0969 29.1649 21.8655 29.455 21.4812 28.9715C21.0969 28.4881 21.193 25.9741 21.8655 25.0072C22.5381 24.0403 23.7871 23.7503 24.5558 23.7502C25.5813 23.7502 26.2532 24.1692 26.4774 24.5238C28.2069 24.5238 28.3196 28.4878 27.9352 28.9712C27.5509 29.4547 28.3196 29.1646 28.3196 29.648C28.3196 30.1315 28.1274 31.0017 27.7431 31.0984C27.3587 31.1951 27.3587 31.1951 27.3587 31.7752C27.3587 32.3554 27.1666 32.7421 26.7823 32.9355C26.6541 33.1611 26.4364 33.7284 26.5901 34.1925C26.7823 34.7726 26.8783 35.5462 28.6078 36.1263C30.3373 36.7064 32.0667 37.48 32.0667 39.4138H22.5439" stroke="white" stroke-width="1.67239" stroke-linecap="round" stroke-linejoin="round"/>
<path d="M35.9991 8.62832L37.1241 8.40332H37.3491L37.5741 8.85332H38.0241L38.4741 9.75332V11.1033L38.6991 11.3283L38.4741 11.7783L38.2491 12.0033V12.2283L38.0241 12.9033L37.7991 13.3533L38.2491 14.2533L40.0491 15.1533L40.4991 16.0533H33.2991L33.5241 15.3783L33.9741 14.9283L35.0991 14.4783L35.5491 14.0283L35.9991 13.3533L35.5491 12.0033L35.3241 11.5533V9.52832L35.9991 8.62832Z" fill="#919399"/>
<path d="M37.9579 16.0665H33.2991C33.2991 15.1205 34.1452 14.742 34.9913 14.4582C35.8374 14.1744 35.8844 13.7959 35.9784 13.5121C36.0536 13.2851 35.9471 13.0075 35.8844 12.8972C35.6964 12.8026 35.6024 12.6134 35.6024 12.3295C35.6024 12.0457 35.6024 12.0457 35.4144 11.9984C35.2263 11.9511 35.1323 11.5254 35.1323 11.2888C35.1323 11.0523 35.5084 11.1942 35.3203 10.9577C35.1323 10.7212 35.1793 9.49131 35.5084 9.01827C35.8374 8.54523 36.4485 8.40333 36.8245 8.40332C37.3262 8.40331 37.655 8.6083 37.7646 8.78175C38.6108 8.78175 38.6659 10.721 38.4779 10.9576C38.2898 11.1941 38.6659 11.0522 38.6659 11.2887C38.6659 11.5252 38.5719 11.9509 38.3838 11.9983C38.1958 12.0456 38.1958 12.0456 38.1958 12.3294C38.1958 12.6132 38.1018 12.8024 37.9138 12.897C37.8511 13.0074 37.7446 13.2849 37.8198 13.512C37.9138 13.7958 37.9608 14.1742 38.8069 14.4581C39.653 14.7419 40.4991 15.1203 40.4991 16.0664H35.8403" stroke="#919399" stroke-width="0.818182" stroke-linecap="round" stroke-linejoin="round"/>
<path d="M23.9011 4.725L25.0261 4.5H25.2511L25.4761 4.95H25.9261L26.3761 5.85V7.2L26.6011 7.425L26.3761 7.875L26.1511 8.1V8.325L25.9261 9L25.7011 9.45L26.1511 10.35L27.9511 11.25L28.4011 12.15H21.2011L21.4261 11.475L21.8761 11.025L23.0011 10.575L23.4511 10.125L23.9011 9.45L23.4511 8.1L23.2261 7.65V5.625L23.9011 4.725Z" fill="#919399"/>
<path d="M25.86 12.1632H21.2011C21.2011 11.2171 22.0472 10.8387 22.8933 10.5549C23.7395 10.2711 23.7865 9.89263 23.8805 9.6088C23.9557 9.38175 23.8491 9.10423 23.7865 8.99385C23.5984 8.89925 23.5044 8.71003 23.5044 8.42621C23.5044 8.14238 23.5044 8.14238 23.3164 8.09508C23.1284 8.04778 23.0344 7.62204 23.0344 7.38552C23.0344 7.149 23.4104 7.29092 23.2224 7.0544C23.0344 6.81788 23.0814 5.58799 23.4104 5.11495C23.7395 4.64191 24.3505 4.50001 24.7266 4.5C25.2283 4.49999 25.557 4.70498 25.6667 4.87843C26.5128 4.87843 26.5679 6.81773 26.3799 7.05425C26.1919 7.29077 26.5679 7.14886 26.5679 7.38537C26.5679 7.62189 26.4739 8.04763 26.2859 8.09493C26.0979 8.14224 26.0979 8.14224 26.0979 8.42606C26.0979 8.70988 26.0038 8.8991 25.8158 8.99371C25.7531 9.10408 25.6466 9.3816 25.7218 9.60866C25.8158 9.89248 25.8628 10.2709 26.7089 10.5547C27.555 10.8386 28.4011 11.217 28.4011 12.1631H23.7423" stroke="#919399" stroke-width="0.818182" stroke-linecap="round" stroke-linejoin="round"/>
<line x1="13.8998" y1="18.6999" x2="12.8498" y2="17.2999" stroke="#107C10" stroke-linecap="round"/>
<line x1="24.5501" y1="18.2999" x2="24.5501" y2="13.2499" stroke="#107C10" stroke-linecap="round"/>
<line x1="0.5" y1="-0.5" x2="2.25" y2="-0.5" transform="matrix(0.6 -0.8 -0.8 -0.6 35.5004 18.7999)" stroke="#107C10" stroke-linecap="round"/>
</svg>
