<svg width="24" height="25" viewBox="0 0 24 25" fill="none" xmlns="http://www.w3.org/2000/svg">
<path fill-rule="evenodd" clip-rule="evenodd" d="M12 24.1979C18.6274 24.1979 24 18.8253 24 12.1979C24 5.57046 18.6274 0.197876 12 0.197876C5.37258 0.197876 0 5.57046 0 12.1979C0 18.8253 5.37258 24.1979 12 24.1979ZM8.92538 12.1979C8.92538 10.4949 10.2987 9.12123 12.0013 9.12123C13.704 9.12123 15.0773 10.4949 15.0773 12.1979C15.0773 13.9009 13.704 15.2745 12.0013 15.2745C10.2987 15.2745 8.92538 13.9009 8.92538 12.1979ZM10.0016 12.1979C10.0016 13.3011 10.9011 14.1981 12.0013 14.1981C13.1016 14.1981 14.0011 13.3011 14.0011 12.1979C14.0011 11.0947 13.1043 10.1977 12.0013 10.1977C10.8984 10.1977 10.0016 11.0947 10.0016 12.1979ZM15.2031 9.71299C15.5993 9.71299 15.9206 9.39435 15.9206 8.99538C15.9206 8.59908 15.5993 8.27776 15.2031 8.27776C14.8069 8.27776 14.4857 8.59908 14.4857 8.99538C14.4857 9.39167 14.8042 9.71299 15.2031 9.71299ZM16.9887 7.20937C17.6928 7.91092 17.9123 8.76242 17.9578 9.7237C18.0141 10.7144 18.0141 13.6813 17.9578 14.672C17.9096 15.6333 17.6901 16.4848 16.9887 17.1864C16.2873 17.8906 15.436 18.1102 14.475 18.1557C13.4844 18.2119 10.5156 18.2119 9.52504 18.1557C8.56397 18.1075 7.71534 17.8879 7.01127 17.1864C6.30719 16.4848 6.08767 15.6333 6.04216 14.672C5.98595 13.6813 5.98595 10.7118 6.04216 9.72103C6.09035 8.75974 6.30719 7.90824 7.01127 7.20669C7.71534 6.50514 8.56665 6.28557 9.52504 6.24005C10.5156 6.18382 13.4844 6.18382 14.475 6.24005C15.436 6.28825 16.2873 6.50782 16.9887 7.20937ZM15.5378 16.8758C16.0651 16.6642 16.4694 16.2599 16.6782 15.7351C16.9468 15.0599 16.9319 13.5829 16.9222 12.6254C16.9206 12.4666 16.9191 12.3221 16.9191 12.1979C16.9191 12.0737 16.9206 11.9292 16.9222 11.7704C16.9319 10.8135 16.9468 9.33817 16.6782 8.66067C16.4667 8.13317 16.0625 7.72884 15.5378 7.51998C14.8606 7.25272 13.3767 7.26696 12.4198 7.27614C12.2645 7.27763 12.1232 7.27899 12.0013 7.27899C11.8771 7.27899 11.7327 7.27752 11.5739 7.27591C10.6172 7.26622 9.14227 7.25127 8.46492 7.51998C7.93753 7.73151 7.5333 8.13584 7.32448 8.66067C7.05729 9.33802 7.07152 10.8222 7.0807 11.7793C7.08219 11.9346 7.08355 12.076 7.08355 12.1979C7.08355 12.3221 7.08208 12.4666 7.08047 12.6254C7.07078 13.5823 7.05584 15.0576 7.32448 15.7351C7.53597 16.2626 7.94021 16.6669 8.46492 16.8758C9.14212 17.143 10.6259 17.1288 11.5829 17.1196C11.7381 17.1181 11.8795 17.1168 12.0013 17.1168C12.1255 17.1168 12.27 17.1182 12.4287 17.1198C13.3855 17.1295 14.8604 17.1445 15.5378 16.8758Z" fill="#ffffff"/>
</svg>
