<svg width="50" height="50" viewBox="0 0 50 50" fill="none" xmlns="http://www.w3.org/2000/svg">
<circle cx="25" cy="25" r="25" fill="white"/>
<circle cx="25" cy="25" r="23.25" stroke="#E0E2E7" stroke-width="0.5" stroke-dasharray="1 1"/>
<circle cx="25" cy="25" r="21.5" fill="white"/>
<path fill-rule="evenodd" clip-rule="evenodd" d="M30.2035 20.7742C29.0165 19.4016 27.3115 18.4893 25.3923 18.3411C25.2097 18.327 25.0251 18.3198 24.8388 18.3198C24.5005 18.3198 24.1677 18.3435 23.8421 18.3893C22.2629 18.6115 20.8507 19.354 19.7845 20.4378C19.5998 20.6255 19.4255 20.8235 19.2625 21.0307C18.3145 22.2363 17.749 23.7569 17.749 25.4096C17.749 26.898 18.2077 28.2793 18.9913 29.4198C19.1407 29.6372 19.302 29.846 19.4741 30.045C20.569 31.311 22.1044 32.1854 23.8421 32.4299C24.1677 32.4757 24.5005 32.4994 24.8388 32.4994C25.0251 32.4994 25.2097 32.4922 25.3923 32.4781C27.15 32.3424 28.7281 31.5657 29.8932 30.3814C30.0778 30.1937 30.2521 29.9958 30.4151 29.7885C31.3631 28.5829 31.9286 27.0623 31.9286 25.4096C31.9286 23.9212 31.47 22.54 30.6863 21.3995C30.5369 21.182 30.3757 20.9733 30.2035 20.7742ZM26.9693 22.0923C26.4073 22.2014 25.8267 22.2586 25.2327 22.2586C25.1729 22.2586 25.1132 22.258 25.0537 22.2569V19.1168C25.8737 19.9659 26.5294 20.9748 26.9693 22.0923ZM24.1943 19.1541C23.4586 19.9245 22.8574 20.8244 22.4284 21.8162C22.9946 22.0004 23.5853 22.1302 24.1943 22.1997V19.1541ZM24.1943 22.9923C23.487 22.9181 22.802 22.7691 22.1473 22.5533C21.8492 23.4513 21.6878 24.4116 21.6878 25.4096C21.6878 26.3312 21.8254 27.2206 22.0812 28.0584C22.7605 27.891 23.4676 27.7942 24.1943 27.776V22.9923ZM24.1943 28.564C23.5596 28.5813 22.9412 28.6638 22.3456 28.8051C22.7785 29.8752 23.41 30.8438 24.1943 31.6651V28.564ZM25.0537 31.7024V28.5808C25.6894 28.6229 26.3071 28.7307 26.9002 28.8973C26.462 29.9471 25.8318 30.8967 25.0537 31.7024ZM25.0537 27.7914V23.0448C25.1132 23.0458 25.1729 23.0464 25.2327 23.0464C25.9162 23.0464 26.5834 22.9767 27.2276 22.8442C27.4673 23.6576 27.596 24.5186 27.596 25.4096C27.596 26.3668 27.4475 27.2894 27.1723 28.1555C26.4934 27.9602 25.7843 27.836 25.0537 27.7914ZM26.2289 19.2614C26.862 20.0524 27.3756 20.9432 27.7424 21.9065C28.3631 21.7279 28.9566 21.4847 29.5149 21.1846C28.6586 20.2375 27.5186 19.5517 26.2289 19.2614ZM30.0127 21.8104C29.3791 22.1629 28.7026 22.4474 27.993 22.6542C28.2474 23.5286 28.3837 24.4532 28.3837 25.4096C28.3837 26.4536 28.2213 27.4596 27.9203 28.4037C28.5724 28.6497 29.1916 28.963 29.7693 29.3351C30.6278 28.2582 31.1409 26.8938 31.1409 25.4096C31.1409 24.0715 30.7238 22.8308 30.0127 21.8104ZM29.2324 29.9276C28.7354 29.6176 28.2061 29.3544 27.6508 29.1442C27.292 30.0189 26.811 30.8306 26.2289 31.5578C27.3815 31.2984 28.4146 30.723 29.2324 29.9276ZM22.9492 31.4235C21.8648 31.0831 20.9067 30.4575 20.1627 29.6346C20.6147 29.3917 21.0898 29.1861 21.5837 29.0218C21.926 29.8894 22.3879 30.6968 22.9492 31.4235ZM19.665 29.0088C20.1904 28.7165 20.7454 28.4709 21.3242 28.2777C21.0484 27.3702 20.9 26.4072 20.9 25.4096C20.9 24.3142 21.0789 23.2606 21.409 22.2764C20.884 22.055 20.3822 21.7894 19.9083 21.4842C19.0499 22.561 18.5368 23.9254 18.5368 25.4096C18.5368 26.7477 18.9538 27.9884 19.665 29.0088ZM20.4452 20.8917C21.143 20.213 21.9975 19.6945 22.9492 19.3958C22.4439 20.05 22.0191 20.7695 21.6897 21.5396C21.2565 21.3553 20.8407 21.1383 20.4452 20.8917Z" fill="#107C10"/>
<path d="M27.1738 9.08189C27.1738 10.3871 26.1157 11.4452 24.8105 11.4452C23.5053 11.4452 22.4473 10.3871 22.4473 9.08189C22.4473 7.7767 23.5053 6.71863 24.8105 6.71863C26.1157 6.71863 27.1738 7.7767 27.1738 9.08189Z" fill="#CACCDC"/>
<path d="M27.03 10.8134C27.4066 10.3374 27.6314 9.73585 27.6314 9.0818C27.6314 8.86861 27.6075 8.66101 27.5623 8.46151C28.1153 8.34298 28.6749 8.66914 28.8377 9.22062L29.679 12.0706C29.7745 12.394 29.7133 12.7264 29.5397 12.9866C29.5146 13.0714 29.4787 13.1545 29.4316 13.2341L27.917 15.7907C27.6095 16.3097 26.9395 16.4812 26.4205 16.1738C25.9014 15.8663 25.7299 15.1962 26.0374 14.6772L27.4612 12.2739L27.03 10.8134Z" fill="#CACCDC"/>
<path d="M22.0815 8.63196C22.0578 8.7784 22.0455 8.92866 22.0455 9.0818C22.0455 9.59638 22.1846 10.0785 22.4274 10.4925C22.4828 10.6246 22.5482 10.7516 22.6224 10.8724L22.1599 12.4393L23.5836 14.8425C23.8911 15.3616 23.7196 16.0316 23.2006 16.3391C22.6815 16.6466 22.0115 16.4751 21.704 15.956L20.1894 13.3994C20.1423 13.3199 20.1064 13.2368 20.0813 13.1519C19.9077 12.8918 19.8466 12.5593 19.942 12.2359L20.7834 9.38595C20.9484 8.82692 21.5211 8.49941 22.0815 8.63196Z" fill="#CACCDC"/>
<mask id="path-6-inside-1_585_1840" fill="white">
<path d="M20.4365 6.08238C20.3626 5.73732 20.5822 5.39664 20.9294 5.33344C23.5209 4.8617 26.1789 4.89076 28.7594 5.41904C29.1051 5.48981 29.3173 5.83521 29.2359 6.17857C29.1544 6.52193 28.8102 6.73316 28.4643 6.66309C26.0688 6.1778 23.6028 6.15084 21.1972 6.58365C20.8499 6.64614 20.5104 6.42744 20.4365 6.08238Z"/>
</mask>
<path d="M20.4365 6.08238C20.3626 5.73732 20.5822 5.39664 20.9294 5.33344C23.5209 4.8617 26.1789 4.89076 28.7594 5.41904C29.1051 5.48981 29.3173 5.83521 29.2359 6.17857C29.1544 6.52193 28.8102 6.73316 28.4643 6.66309C26.0688 6.1778 23.6028 6.15084 21.1972 6.58365C20.8499 6.64614 20.5104 6.42744 20.4365 6.08238Z" fill="#CACCDC"/>
<path d="M21.1972 6.58365L21.4451 7.96153H21.4451L21.1972 6.58365ZM28.4643 6.66309L28.1864 8.03522L28.4643 6.66309ZM28.7594 5.41904L29.0402 4.04748L28.7594 5.41904ZM20.9294 5.33344L20.6787 3.95607L20.9294 5.33344ZM21.1801 6.7108C23.5957 6.27109 26.0733 6.29817 28.4787 6.79059L29.0402 4.04748C26.2845 3.48334 23.4461 3.45231 20.6787 3.95607L21.1801 6.7108ZM28.7423 5.29097C26.1734 4.77055 23.529 4.74164 20.9493 5.20577L21.4451 7.96153C23.6767 7.56003 25.9642 7.58504 28.1864 8.03522L28.7423 5.29097ZM20.9493 5.20577C21.3159 5.13983 21.715 5.36684 21.8054 5.78911L19.0675 6.37565C19.3058 7.48803 20.384 8.15245 21.4451 7.96153L20.9493 5.20577ZM27.8737 5.85545C27.9733 5.43526 28.3773 5.21702 28.7423 5.29097L28.1864 8.03522C29.2431 8.2493 30.3355 7.60861 30.5981 6.5017L27.8737 5.85545ZM28.4787 6.79059C28.0223 6.69718 27.7794 6.25295 27.8737 5.85545L30.5981 6.5017C30.8553 5.41747 30.188 4.28244 29.0402 4.04748L28.4787 6.79059ZM20.6787 3.95607C19.5261 4.16588 18.8341 5.28605 19.0675 6.37565L21.8054 5.78911C21.891 6.18858 21.6384 6.62739 21.1801 6.7108L20.6787 3.95607Z" fill="#919399" mask="url(#path-6-inside-1_585_1840)"/>
<path d="M40.9696 22.9681C39.7089 23.3059 38.413 22.5577 38.0752 21.297C37.7374 20.0363 38.4856 18.7404 39.7463 18.4026C41.007 18.0648 42.3029 18.813 42.6407 20.0737C42.9785 21.3344 42.2303 22.6303 40.9696 22.9681Z" fill="#CACCDC"/>
<path d="M39.2599 23.2773C39.8171 23.5179 40.4564 23.5793 41.0881 23.4101C41.294 23.3549 41.4884 23.2781 41.6694 23.1827C41.927 23.6863 41.7568 24.3112 41.2662 24.6112L38.7312 26.1615C38.4435 26.3374 38.1065 26.3643 37.8103 26.264C37.7219 26.2617 37.6323 26.2486 37.5432 26.2236L34.6817 25.4224C34.1008 25.2597 33.7617 24.6569 33.9244 24.076C34.0871 23.495 34.6899 23.1559 35.2708 23.3186L37.9607 24.0718L39.2599 23.2773Z" fill="#CACCDC"/>
<path d="M40.0862 17.9329C39.9386 17.9479 39.7903 17.9749 39.6424 18.0145C39.1453 18.1477 38.7157 18.4069 38.3786 18.7485C38.2654 18.8363 38.1596 18.9322 38.0621 19.0352L36.4289 18.994L34.476 20.9912C34.0543 21.4226 33.3627 21.4303 32.9313 21.0085C32.5 20.5868 32.4922 19.8952 32.914 19.4638L34.9915 17.3392C35.0561 17.2731 35.1271 17.2169 35.2026 17.1707C35.4089 16.9357 35.7142 16.7905 36.0514 16.7991L39.0219 16.8741C39.6046 16.8888 40.0692 17.3573 40.0862 17.9329Z" fill="#CACCDC"/>
<mask id="path-9-inside-2_585_1840" fill="white">
<path d="M42.1231 15.6845C42.4373 15.5238 42.8232 15.6478 42.9741 15.9668C44.1005 18.3479 44.7604 20.9228 44.918 23.5521C44.9391 23.9044 44.6604 24.1987 44.3077 24.2089C43.9549 24.2191 43.6618 23.9413 43.64 23.5891C43.4887 21.1495 42.8765 18.7607 41.8358 16.549C41.6856 16.2297 41.809 15.8452 42.1231 15.6845Z"/>
</mask>
<path d="M42.1231 15.6845C42.4373 15.5238 42.8232 15.6478 42.9741 15.9668C44.1005 18.3479 44.7604 20.9228 44.918 23.5521C44.9391 23.9044 44.6604 24.1987 44.3077 24.2089C43.9549 24.2191 43.6618 23.9413 43.64 23.5891C43.4887 21.1495 42.8765 18.7607 41.8358 16.549C41.6856 16.2297 41.809 15.8452 42.1231 15.6845Z" fill="#CACCDC"/>
<path d="M41.8358 16.549L40.5691 17.1451L40.5691 17.1451L41.8358 16.549ZM43.64 23.5891L42.2426 23.6757L43.64 23.5891ZM44.918 23.5521L46.3155 23.4684L44.918 23.5521ZM42.9741 15.9668L44.2397 15.3681L42.9741 15.9668ZM41.7086 16.5654C42.7585 18.7849 43.3736 21.185 43.5205 23.6359L46.3155 23.4684C46.1472 20.6605 45.4425 17.9108 44.2397 15.3681L41.7086 16.5654ZM45.0373 23.5025C44.8751 20.8864 44.2186 18.3246 43.1026 15.953L40.5691 17.1451C41.5344 19.1967 42.1023 21.4127 42.2426 23.6757L45.0373 23.5025ZM43.1026 15.953C43.2612 16.2899 43.1452 16.7342 42.7607 16.9309L41.4855 14.4381C40.4727 14.9562 40.11 16.1695 40.5691 17.1451L43.1026 15.953ZM44.2672 22.8095C44.6989 22.797 45.0142 23.1307 45.0373 23.5025L42.2426 23.6757C42.3094 24.7519 43.211 25.6412 44.3481 25.6083L44.2672 22.8095ZM43.5205 23.6359C43.4926 23.171 43.8589 22.8213 44.2672 22.8095L44.3481 25.6083C45.462 25.5761 46.3856 24.6378 46.3155 23.4684L43.5205 23.6359ZM44.2397 15.3681C43.7387 14.3091 42.4776 13.9306 41.4855 14.4381L42.7607 16.9309C42.397 17.1169 41.9078 16.9865 41.7086 16.5654L44.2397 15.3681Z" fill="#919399" mask="url(#path-9-inside-2_585_1840)"/>
<path d="M32.3404 40.1954C31.5832 39.1323 31.8311 37.6567 32.8942 36.8994C33.9573 36.1422 35.4329 36.3901 36.1902 37.4532C36.9474 38.5162 36.6995 39.9919 35.6364 40.7491C34.5733 41.5064 33.0977 41.2585 32.3404 40.1954Z" fill="#CACCDC"/>
<path d="M31.453 38.7017C31.4225 39.3078 31.5883 39.9282 31.9678 40.4609C32.0915 40.6346 32.2314 40.7898 32.384 40.926C32.0023 41.3435 31.3573 41.4025 30.9048 41.0477L28.566 39.2146C28.3006 39.0066 28.1576 38.7003 28.148 38.3877C28.1192 38.304 28.1002 38.2155 28.0925 38.1234L27.8428 35.1623C27.7921 34.5612 28.2383 34.0328 28.8395 33.9821C29.4406 33.9314 29.9691 34.3776 30.0197 34.9788L30.2545 37.7622L31.453 38.7017Z" fill="#CACCDC"/>
<path d="M36.7491 37.6074C36.6835 37.4744 36.6063 37.3449 36.5175 37.2201C36.2189 36.801 35.8259 36.4891 35.388 36.2927C35.2662 36.2173 35.1393 36.1518 35.0087 36.0964L34.4764 34.5519L31.9224 33.4205C31.3709 33.1761 31.1218 32.5309 31.3662 31.9793C31.6105 31.4277 32.2557 31.1787 32.8073 31.423L35.5242 32.6266C35.6088 32.6641 35.6862 32.711 35.7558 32.7655C36.0482 32.8767 36.2909 33.112 36.4008 33.4308L37.369 36.2402C37.5589 36.7912 37.2825 37.3902 36.7491 37.6074Z" fill="#CACCDC"/>
<mask id="path-12-inside-3_585_1840" fill="white">
<path d="M39.5677 38.7304C39.8281 38.9685 39.8468 39.3734 39.6007 39.6263C37.7636 41.5141 35.5819 43.0325 33.1735 44.0994C32.8509 44.2424 32.4777 44.0841 32.3448 43.7572C32.212 43.4303 32.3698 43.0585 32.6921 42.9149C34.9248 41.9204 36.949 40.5116 38.6572 38.7634C38.9038 38.511 39.3073 38.4922 39.5677 38.7304Z"/>
</mask>
<path d="M39.5677 38.7304C39.8281 38.9685 39.8468 39.3734 39.6007 39.6263C37.7636 41.5141 35.5819 43.0325 33.1735 44.0994C32.8509 44.2424 32.4777 44.0841 32.3448 43.7572C32.212 43.4303 32.3698 43.0585 32.6921 42.9149C34.9248 41.9204 36.949 40.5116 38.6572 38.7634C38.9038 38.511 39.3073 38.4922 39.5677 38.7304Z" fill="#CACCDC"/>
<path d="M38.6572 38.7634L37.6559 37.785L37.6559 37.785L38.6572 38.7634ZM32.6921 42.9149L32.1224 41.6361L32.6921 42.9149ZM33.1735 44.0994L33.7406 45.3794L33.1735 44.0994ZM39.6007 39.6263L40.604 40.6027L39.6007 39.6263ZM38.5974 38.65C36.885 40.4096 34.8513 41.8249 32.6065 42.8194L33.7406 45.3794C36.3124 44.2401 38.6423 42.6186 40.604 40.6027L38.5974 38.65ZM33.2618 44.1938C35.6561 43.1272 37.8267 41.6166 39.6585 39.7419L37.6559 37.785C36.0713 39.4067 34.1936 40.7135 32.1224 41.6361L33.2618 44.1938ZM39.6585 39.7419C39.3982 40.0083 38.9415 40.0549 38.6228 39.7634L40.5125 37.6973C39.673 36.9295 38.4094 37.0138 37.6559 37.785L39.6585 39.7419ZM33.6418 43.2301C33.8044 43.6301 33.602 44.0423 33.2618 44.1938L32.1224 41.6361C31.1375 42.0748 30.6195 43.2304 31.0479 44.2843L33.6418 43.2301ZM32.6065 42.8194C33.0323 42.6308 33.488 42.8516 33.6418 43.2301L31.0479 44.2843C31.4674 45.3167 32.6695 45.854 33.7406 45.3794L32.6065 42.8194ZM40.604 40.6027C41.4211 39.7631 41.3348 38.4493 40.5125 37.6973L38.6228 39.7634C38.3213 39.4877 38.2725 38.9838 38.5974 38.65L40.604 40.6027Z" fill="#919399" mask="url(#path-12-inside-3_585_1840)"/>
<path d="M12.9518 36.7997C13.7856 35.7955 15.2755 35.6574 16.2797 36.4912C17.2838 37.325 17.4219 38.815 16.5881 39.8191C15.7543 40.8233 14.2643 40.9614 13.2602 40.1276C12.2561 39.2938 12.118 37.8038 12.9518 36.7997Z" fill="#CACCDC"/>
<path d="M14.1685 35.5595C13.5748 35.6851 13.0175 36.0042 12.5997 36.5074C12.4635 36.6714 12.3492 36.8464 12.2566 37.0288C11.7554 36.7667 11.5333 36.1583 11.7603 35.63L12.9337 32.8999C13.0668 32.5901 13.3263 32.3734 13.626 32.2842C13.6995 32.235 13.7802 32.1939 13.8673 32.1628L16.6658 31.1635C17.2339 30.9606 17.859 31.2567 18.0619 31.8248C18.2648 32.393 17.9687 33.018 17.4005 33.2209L14.7699 34.1603L14.1685 35.5595Z" fill="#CACCDC"/>
<path d="M16.5821 40.399C16.6939 40.3014 16.7993 40.1937 16.8972 40.0759C17.2259 39.68 17.4268 39.2202 17.5045 38.7466C17.5463 38.6096 17.5771 38.4701 17.5972 38.3297L18.954 37.4198L19.394 34.6613C19.489 34.0655 20.049 33.6596 20.6447 33.7546C21.2405 33.8497 21.6464 34.4096 21.5514 35.0054L21.0834 37.9398C21.0688 38.0312 21.0433 38.118 21.0084 38.1993C20.9758 38.5104 20.8105 38.8052 20.5304 38.9931L18.0625 40.6482C17.5784 40.9728 16.9285 40.8589 16.5821 40.399Z" fill="#CACCDC"/>
<mask id="path-15-inside-4_585_1840" fill="white">
<path d="M16.2186 43.4109C16.055 43.7236 15.6684 43.8454 15.3609 43.6722C13.0658 42.3796 11.0395 40.6593 9.39161 38.6043C9.17085 38.329 9.22827 37.9277 9.51028 37.7156C9.7923 37.5035 10.1921 37.5608 10.4134 37.8357C11.9464 39.7394 13.8263 41.3355 15.9535 42.5393C16.2607 42.7131 16.3822 43.0983 16.2186 43.4109Z"/>
</mask>
<path d="M16.2186 43.4109C16.055 43.7236 15.6684 43.8454 15.3609 43.6722C13.0658 42.3796 11.0395 40.6593 9.39161 38.6043C9.17085 38.329 9.22827 37.9277 9.51028 37.7156C9.7923 37.5035 10.1921 37.5608 10.4134 37.8357C11.9464 39.7394 13.8263 41.3355 15.9535 42.5393C16.2607 42.7131 16.3822 43.0983 16.2186 43.4109Z" fill="#CACCDC"/>
<path d="M15.9535 42.5393L16.6431 41.3209L16.6431 41.3209L15.9535 42.5393ZM10.4134 37.8357L11.5038 36.9576L10.4134 37.8357ZM9.39161 38.6043L8.2994 39.4801L9.39161 38.6043ZM15.3609 43.6722L14.6739 44.8921L15.3609 43.6722ZM16.0479 42.4524C13.9086 41.2475 12.0198 39.6439 10.4838 37.7285L8.2994 39.4801C10.0591 41.6746 12.223 43.5117 14.6739 44.8921L16.0479 42.4524ZM9.32297 38.7138C10.9669 40.7553 12.9829 42.4668 15.264 43.7577L16.6431 41.3209C14.6698 40.2042 12.9259 38.7236 11.5038 36.9576L9.32297 38.7138ZM15.264 43.7577C14.9399 43.5743 14.7779 43.1447 14.9781 42.762L17.4591 44.0598C17.9864 43.0518 17.5814 41.8519 16.6431 41.3209L15.264 43.7577ZM10.3519 38.8344C10.0068 39.094 9.55655 39.0038 9.32297 38.7138L11.5038 36.9576C10.8276 36.1179 9.57784 35.9129 8.6687 36.5968L10.3519 38.8344ZM10.4838 37.7285C10.7752 38.0918 10.6783 38.5888 10.3519 38.8344L8.6687 36.5968C7.7782 37.2666 7.56649 38.5661 8.2994 39.4801L10.4838 37.7285ZM14.6739 44.8921C15.6947 45.467 16.9426 45.0472 17.4591 44.0598L14.9781 42.762C15.1674 42.4 15.6421 42.2238 16.0479 42.4524L14.6739 44.8921Z" fill="#919399" mask="url(#path-15-inside-4_585_1840)"/>
<path d="M8.60268 22.9681C9.86341 23.3059 11.1593 22.5577 11.4971 21.297C11.8349 20.0363 11.0867 18.7404 9.826 18.4026C8.56528 18.0648 7.26941 18.813 6.9316 20.0737C6.59379 21.3344 7.34196 22.6303 8.60268 22.9681Z" fill="#CACCDC"/>
<path d="M10.3124 23.2773C9.75516 23.5179 9.11593 23.5793 8.48416 23.4101C8.27825 23.3549 8.0839 23.2781 7.90291 23.1827C7.64526 23.6863 7.81549 24.3112 8.30604 24.6112L10.8411 26.1615C11.1288 26.3374 11.4658 26.3643 11.762 26.264C11.8504 26.2617 11.94 26.2486 12.0291 26.2236L14.8905 25.4224C15.4715 25.2597 15.8105 24.6569 15.6479 24.076C15.4852 23.495 14.8824 23.1559 14.3015 23.3186L11.6116 24.0718L10.3124 23.2773Z" fill="#CACCDC"/>
<path d="M9.48607 17.9329C9.63366 17.9479 9.78198 17.9749 9.9299 18.0145C10.427 18.1477 10.8566 18.4069 11.1937 18.7485C11.3069 18.8363 11.4127 18.9322 11.5102 19.0352L13.1434 18.994L15.0962 20.9912C15.518 21.4226 16.2096 21.4303 16.6409 21.0085C17.0723 20.5868 17.0801 19.8952 16.6583 19.4638L14.5808 17.3392C14.5161 17.2731 14.4452 17.2169 14.3697 17.1707C14.1633 16.9357 13.858 16.7905 13.5209 16.7991L10.5503 16.8741C9.96765 16.8888 9.50308 17.3573 9.48607 17.9329Z" fill="#CACCDC"/>
<mask id="path-18-inside-5_585_1840" fill="white">
<path d="M7.44914 15.6845C7.13497 15.5238 6.74904 15.6478 6.59814 15.9668C5.47175 18.3479 4.81188 20.9228 4.65426 23.5521C4.63315 23.9044 4.91187 24.1987 5.26461 24.2089C5.61735 24.2191 5.91047 23.9413 5.93231 23.5891C6.08356 21.1495 6.69575 18.7607 7.73644 16.549C7.88669 16.2297 7.76331 15.8452 7.44914 15.6845Z"/>
</mask>
<path d="M7.44914 15.6845C7.13497 15.5238 6.74904 15.6478 6.59814 15.9668C5.47175 18.3479 4.81188 20.9228 4.65426 23.5521C4.63315 23.9044 4.91187 24.1987 5.26461 24.2089C5.61735 24.2191 5.91047 23.9413 5.93231 23.5891C6.08356 21.1495 6.69575 18.7607 7.73644 16.549C7.88669 16.2297 7.76331 15.8452 7.44914 15.6845Z" fill="#CACCDC"/>
<path d="M7.73644 16.549L9.0032 17.1451L9.0032 17.1451L7.73644 16.549ZM5.93231 23.5891L7.32962 23.6757L5.93231 23.5891ZM4.65426 23.5521L3.25677 23.4684L4.65426 23.5521ZM6.59814 15.9668L5.3326 15.3681L6.59814 15.9668ZM7.86368 16.5654C6.81375 18.7849 6.19868 21.185 6.05175 23.6359L3.25677 23.4684C3.42509 20.6605 4.12975 17.9108 5.3326 15.3681L7.86368 16.5654ZM4.53499 23.5025C4.69719 20.8864 5.35368 18.3246 6.46967 15.953L9.0032 17.1451C8.03783 19.1967 7.46993 21.4127 7.32962 23.6757L4.53499 23.5025ZM6.46967 15.953C6.3111 16.2899 6.42709 16.7342 6.81156 16.9309L8.08672 14.4381C9.09953 14.9562 9.46227 16.1695 9.0032 17.1451L6.46967 15.953ZM5.30506 22.8095C4.87339 22.797 4.55804 23.1307 4.53499 23.5025L7.32962 23.6757C7.2629 24.7519 6.36131 25.6412 5.22416 25.6083L5.30506 22.8095ZM6.05175 23.6359C6.07963 23.171 5.71342 22.8213 5.30506 22.8095L5.22416 25.6083C4.11031 25.5761 3.18667 24.6378 3.25677 23.4684L6.05175 23.6359ZM5.3326 15.3681C5.83358 14.3091 7.09467 13.9306 8.08672 14.4381L6.81156 16.9309C7.17527 17.1169 7.66451 16.9865 7.86368 16.5654L5.3326 15.3681Z" fill="#919399" mask="url(#path-18-inside-5_585_1840)"/>
<path fill-rule="evenodd" clip-rule="evenodd" d="M24.6238 12.7344C25.3449 12.7344 26.0522 12.7936 26.7411 12.9074L25.9865 14.2143C25.5396 14.1615 25.0849 14.1344 24.6238 14.1344C24.2656 14.1344 23.9112 14.1508 23.5613 14.1828L22.7991 12.8625C23.3952 12.7781 24.0044 12.7344 24.6238 12.7344ZM33.4672 18.2878C32.2326 16.8014 30.6304 15.6313 28.8 14.9169L29.5074 13.6916C31.4396 14.4832 33.1369 15.7304 34.4656 17.2996L33.4672 18.2878ZM35.1327 20.9708C35.4201 21.6188 35.6493 22.2983 35.8137 23.0026L37.3352 23.4709C37.1245 22.2185 36.7332 21.0274 36.189 19.9253L35.1327 20.9708ZM37.4694 26.7084L36.0956 26.2855C35.9854 28.2305 35.3914 30.046 34.4322 31.6138L35.723 32.1843C36.6877 30.5555 37.304 28.696 37.4694 26.7084ZM33.7577 34.7209L32.3733 34.109C31.8006 34.6324 31.1747 35.0986 30.5046 35.4986L30.6214 37.0381C31.7829 36.4265 32.8396 35.6428 33.7577 34.7209ZM27.6816 38.1506L27.574 36.7332C26.6326 36.9826 25.6437 37.1155 24.6238 37.1155C23.6473 37.1155 22.6992 36.9936 21.794 36.7644L21.5956 38.1578C22.5668 38.3916 23.5808 38.5155 24.6238 38.5155C25.6773 38.5155 26.7014 38.3891 27.6816 38.1506ZM18.6026 37.0257L18.814 35.5406C18.0445 35.0888 17.3323 34.55 16.6909 33.9377L15.2436 34.4668C16.2112 35.4929 17.3452 36.3603 18.6026 37.0257ZM13.3816 31.9368L14.7164 31.4488C13.8224 29.9313 13.2671 28.1903 13.1545 26.3299L11.7773 26.6989C11.9333 28.5901 12.4975 30.3655 13.3816 31.9368ZM11.9116 23.4758L13.4178 23.0722C13.5979 22.2785 13.8601 21.5159 14.1951 20.7939L13.1711 19.7029C12.5674 20.868 12.1363 22.1369 11.9116 23.4758ZM14.9818 17.0691L15.9444 18.0947C17.2099 16.6373 18.8363 15.5019 20.6845 14.8274L19.9748 13.5982C18.0418 14.3459 16.3342 15.5462 14.9818 17.0691Z" fill="#919399"/>
</svg>
