<svg width="24" height="25" viewBox="0 0 24 25" fill="none" xmlns="http://www.w3.org/2000/svg">
<path fill-rule="evenodd" clip-rule="evenodd" d="M12 24.1979C18.6274 24.1979 24 18.8253 24 12.1979C24 5.57046 18.6274 0.197876 12 0.197876C5.37258 0.197876 0 5.57046 0 12.1979C0 18.8253 5.37258 24.1979 12 24.1979ZM10.75 12.278V17.1979H12.8864V12.278H14.5455L14.8182 10.3229H12.8864V8.96936C12.8864 8.65426 12.947 8.42509 13.0682 8.28186C13.2197 8.10999 13.5 8.02405 13.9091 8.02405H15V6.28381C14.5909 6.22652 14.0606 6.19788 13.4091 6.19788C12.6061 6.19788 11.9621 6.42704 11.4773 6.88538C10.9924 7.32939 10.75 7.95959 10.75 8.776V10.3229H9V12.278H10.75Z" fill="white"/>
</svg>
