<svg width="50" height="50" viewBox="0 0 50 50" fill="none" xmlns="http://www.w3.org/2000/svg">
<circle cx="25" cy="25" r="25" fill="white"/>
<circle cx="25" cy="25" r="23.25" stroke="#E0E2E7" stroke-width="0.5" stroke-dasharray="1 1"/>
<circle cx="25" cy="25" r="21.5" fill="white"/>
<path d="M24.8285 13.5978C24.8285 13.5978 23.9141 13.44 23.9141 12.6512V6C23.9141 6 24.8285 6.26188 24.8285 7.10748V13.5978Z" fill="#C2C6D1"/>
<path d="M30.6001 10.127L30.3614 10.5845C30.3614 10.5845 30.2405 10.9726 30.9442 11.6573C30.4117 11.8321 29.7752 11.4727 29.0145 11.0431C28.0039 10.4725 26.7741 9.77811 25.278 10.0481C27.1833 10.5234 28.1003 11.21 28.9397 11.8384C29.8947 12.5534 30.7492 13.1932 32.8442 13.3611C32.8442 13.3611 31.8927 12.0012 31.6912 11.3008C31.5393 10.7738 32.0941 9.97557 32.0941 9.97557C31.3875 9.85569 30.7404 9.39465 30.0215 8.8825C28.8484 8.0467 27.4843 7.07478 25.3586 7.22738C27.5004 7.80521 28.5178 8.63297 29.2991 9.26868C29.7593 9.6431 30.1376 9.95091 30.6156 10.1018L30.6001 10.127Z" fill="#C2C6D1"/>
<path d="M21.1709 14.2036C24.7355 17.0874 25.7925 21.937 24.3791 27.7962C26.9208 23.1486 26.8402 16.5037 21.8807 12.7616C18.6695 10.6918 12.7956 9.15522 9.48521 9.78626C12.3648 9.99135 17.6032 11.3134 21.1709 14.2036Z" fill="#C2C6D1"/>
<path d="M31.127 17.1379C32.6769 18.4379 33.5262 21.7445 33.5262 21.7445C33.5262 21.7445 34.0965 18.7155 32.3421 16.3207C30.0608 14.1752 23.9296 14.0584 23.9296 14.0584C23.9296 14.0584 28.3094 14.7589 31.127 17.1284V17.1379Z" fill="#C2C6D1"/>
<path d="M37.3636 30.3709C38.7956 28.8406 41.0057 23.7702 38.7646 19.132C35.6866 17.0748 33.4518 16.7277 33.4518 16.7277C36.3562 18.0371 40.767 21.9338 37.3636 30.3614V30.3709Z" fill="#C2C6D1"/>
<path d="M14.8724 17.2767C13.473 13.9064 10.8294 11.2301 7.51072 9.82412C7.72263 10.1099 8.08736 10.4603 8.54949 10.9042C10.5208 12.7977 14.2646 16.3938 15.48 23.9469L15.3064 23.4988L9.5782 34.6935C9.93333 34.5835 10.2456 34.3628 10.4709 34.0625C10.8956 33.4314 14.8941 25.9473 15.5698 24.6757C15.6504 25.2626 15.7145 25.8736 15.762 26.5089L11.1931 34.9018C11.5468 34.7906 11.8578 34.57 12.0827 34.2707C12.342 33.8923 13.736 31.514 14.9385 29.4626L14.9476 29.4471C15.2657 28.9043 15.5702 28.3848 15.8364 27.9319C15.8938 29.9107 15.8099 31.891 15.5853 33.8574C15.5853 33.8574 16.2053 33.6176 16.4997 32.5354C17.1941 30.068 17.8295 24.0321 14.8724 17.2673V17.2767Z" fill="#C2C6D1"/>
<path d="M40.7267 33.7154C39.9487 31.9706 37.9184 31.2543 37.0071 31.0145C36.83 29.1859 36.3379 27.4034 35.5534 25.7485L37.6332 24.4864C37.6332 24.4864 37.9215 22.9624 37.1342 22.8362C36.3469 22.71 31.9794 21.9465 31.9794 21.9465C31.6654 22.8097 31.2311 23.6226 30.69 24.3602V28.2001C30.6986 28.4281 30.7745 28.6481 30.9077 28.8316C31.041 29.0151 31.2254 29.1534 31.437 29.2287L31.7718 24.8524C32.1855 24.3512 32.5154 23.7841 32.7482 23.1738C32.7482 23.1738 34.2174 23.4231 34.7381 23.5304C35.2589 23.6377 35.0977 24.3854 35.0977 24.3854L33.3743 25.3162C37.4038 35.2268 32.9 41.3637 32.9 41.3637C32.9 41.3637 33.9353 41.2532 34.9582 40.0385C35.495 40.1317 36.0221 40.2754 36.5329 40.4676C36.5329 39.8649 35.9439 39.521 35.4666 39.3254C35.6658 38.9993 35.8389 38.6574 35.9842 38.3031C36.543 38.4897 37.0795 38.7394 37.5836 39.0477C37.6766 38.1485 36.8955 37.6026 36.3438 37.3344C36.4399 37.0442 36.5266 36.757 36.601 36.4731C37.2681 36.6951 37.9077 36.9947 38.5073 37.366C38.4143 36.3058 37.4503 35.7537 36.8273 35.5076C36.8831 35.2331 36.9265 34.9586 36.9637 34.6872C37.6554 34.9547 38.3123 35.3075 38.9196 35.7379C38.8514 34.7693 37.8471 34.053 37.0598 33.6397C37.0815 33.2958 37.0908 32.955 37.0908 32.6206C37.8781 32.8477 39.5953 33.5198 39.6945 35.0595C39.803 36.7381 38.8018 39.1865 37.4689 40.7389C39.1025 40.4613 40.2276 38.4072 40.4229 37.9434C40.9871 36.5519 41.2288 35.009 40.7267 33.7059V33.7154Z" fill="#C2C6D1"/>
<path d="M17.0484 32.5038C17.0484 32.5038 23.4337 26.7329 30.3769 28.8217C24.1962 25.7169 18.2386 30.1689 17.0484 32.5038Z" fill="#C2C6D1"/>
<path d="M19.7389 33.6365H19.6924C20.1201 33.8385 20.4394 34.6809 20.4394 35.6906C20.4394 36.7002 20.1294 37.5427 19.6924 37.7446H19.7389C20.3061 37.7446 20.768 36.8201 20.768 35.6748C20.768 34.5295 20.3061 33.6365 19.7389 33.6365Z" fill="#C2C6D1"/>
<path d="M19.5715 34.9649C19.3731 34.9649 19.215 35.2993 19.215 35.7063C19.215 36.1134 19.3731 36.4478 19.5715 36.4478C19.7699 36.4478 19.928 36.1134 19.928 35.7063C19.928 35.2993 19.7668 34.9649 19.5715 34.9649Z" fill="#C2C6D1"/>
<path d="M18.4649 35.0438C18.4496 35.1408 18.4381 35.2384 18.4306 35.3363C18.4251 35.392 18.4215 35.4482 18.4215 35.5044C18.4233 35.4483 18.4263 35.3922 18.4306 35.3363C18.4383 35.2584 18.45 35.1814 18.4613 35.1064L18.4711 35.0406L18.4649 35.0438Z" fill="#C2C6D1"/>
<path d="M20.7184 37.3344C20.7533 37.2685 20.7834 37.1999 20.8083 37.1294C20.7835 37.2082 20.7525 37.2776 20.7184 37.3439V37.3344Z" fill="#C2C6D1"/>
<path d="M9.5503 36.9211C9.731 37.2447 9.826 37.6106 9.826 37.9828C9.826 38.3551 9.731 38.7209 9.5503 39.0446C9.81687 38.9752 10.0245 38.5397 10.0245 37.9813C10.0245 37.4228 9.81687 36.9811 9.5503 36.9211Z" fill="#C2C6D1"/>
<path d="M9.39222 37.5521C9.27754 37.5521 9.18764 37.7415 9.18764 37.975C9.18764 38.2084 9.27754 38.3978 9.39222 38.3978C9.50691 38.3978 9.5968 38.2116 9.5968 37.975C9.5968 37.7383 9.50381 37.5521 9.39222 37.5521Z" fill="#C2C6D1"/>
<path d="M12.2966 36.35H12.2749C12.5601 36.5046 12.7801 37.1041 12.7801 37.8582C12.7801 38.6123 12.5601 39.2213 12.2749 39.3727H12.2966C12.712 39.3727 13.0498 38.6943 13.0498 37.8519C13.0498 37.0095 12.712 36.35 12.2966 36.35Z" fill="#C2C6D1"/>
<path d="M12.1757 37.3344C12.0331 37.3344 11.9153 37.5711 11.9091 37.8645C11.9029 38.158 12.0207 38.4041 12.1633 38.4072C12.3059 38.4104 12.4237 38.1706 12.4299 37.874C12.4361 37.5774 12.3183 37.3344 12.1757 37.3344Z" fill="#C2C6D1"/>
<path d="M15.7434 35.3877C15.705 35.3877 15.6691 35.4079 15.6334 35.428C15.6144 35.4387 15.5954 35.4494 15.576 35.4571C15.979 35.4571 16.3045 36.2143 16.3045 37.1451C16.3045 38.0759 15.979 38.8269 15.576 38.8332C15.5954 38.8408 15.6144 38.8515 15.6334 38.8622C15.6691 38.8824 15.705 38.9026 15.7434 38.9026C16.227 38.9026 16.6175 38.1169 16.6175 37.1451C16.6175 36.1733 16.227 35.3877 15.7434 35.3877Z" fill="#C2C6D1"/>
<path d="M15.6008 36.5456C15.4428 36.5456 15.3157 36.8138 15.3157 37.1451C15.3157 37.4764 15.4428 37.7446 15.6008 37.7446C15.7589 37.7446 15.8922 37.4764 15.8922 37.1451C15.8922 36.8138 15.762 36.5456 15.6008 36.5456Z" fill="#C2C6D1"/>
<path d="M24.3419 32.0621C24.3192 32.0603 24.2964 32.0603 24.2737 32.0621C24.7479 32.2798 25.1044 33.2264 25.1044 34.3622C25.1044 35.4981 24.7479 36.4415 24.2737 36.6592C24.2964 36.661 24.3192 36.661 24.3419 36.6592C24.9618 36.6592 25.4919 35.6275 25.4919 34.3496C25.4919 33.0717 24.9773 32.0621 24.3419 32.0621Z" fill="#C2C6D1"/>
<path d="M24.1528 33.4693C23.911 33.4693 23.7158 33.8732 23.7158 34.3749C23.7158 34.8765 23.911 35.2804 24.1528 35.2804C24.3946 35.2804 24.5899 34.8734 24.5899 34.3749C24.5899 33.8763 24.3915 33.4693 24.1528 33.4693Z" fill="#C2C6D1"/>
<path fill-rule="evenodd" clip-rule="evenodd" d="M29.8717 41.7896C30.8698 42.0199 31.6788 40.7074 32.0662 40.0763C33.3123 38.0633 34.6916 33.0465 32.804 30.1279C29.2083 29.2318 22.541 29.6199 16.6144 33.4725C11.6767 36.6908 8.6638 35.5959 7.77729 34.2865L8.60491 32.8887C8.60491 32.8887 7.54792 29.7872 5 31.9043L5.43085 33.1664C5.43085 33.1664 4.50095 37.8708 6.92799 40.496C6.91054 40.4887 6.89306 40.4813 6.87555 40.474C7.73622 41.5576 9.22743 42.3402 10.8637 42.7276C12.5 43.115 16.2763 43.2719 19.2119 41.919C15.3777 42.5121 12.8793 42.55 9.46971 41.4552C5.48975 39.6756 6.17477 34.3969 6.17477 34.3969L6.47544 33.3967L5.933 32.1157C5.933 32.1157 6.8443 31.8538 7.27515 32.9897L6.70481 34.3275C6.70481 34.3275 7.04578 35.7979 9.21554 36.3058C9.03434 36.4391 8.8808 36.6075 8.76377 36.8013C8.64674 36.9952 8.56852 37.2107 8.53361 37.4354C8.18503 37.3704 7.84275 37.2743 7.51072 37.1483C7.80235 37.3703 8.12666 37.5438 8.47162 37.6626C8.45674 37.7671 8.44948 37.8725 8.44992 37.9781C8.44956 38.2415 8.4893 38.5033 8.56771 38.7543C8.31767 38.6933 8.0697 38.6207 7.82379 38.5366C8.08493 38.7389 8.37164 38.9044 8.6762 39.0288C8.75159 39.2366 8.88336 39.4184 9.05619 39.553C9.22903 39.6876 9.43584 39.7695 9.65259 39.7892C9.7903 39.785 9.9255 39.7507 10.049 39.6886C10.1726 39.6266 10.2816 39.5382 10.3686 39.4295C10.6907 39.4668 11.0147 39.4848 11.3388 39.4831C11.4508 39.7093 11.6191 39.9017 11.8268 40.0412C12.0345 40.1807 12.2745 40.2624 12.5229 40.2783C13.0653 40.2783 13.5458 39.8712 13.834 39.2402C14.1419 39.1897 14.4519 39.1298 14.7639 39.0603C14.8944 39.279 15.0758 39.4616 15.292 39.592C15.5083 39.7224 15.7527 39.7966 16.0038 39.8081C16.695 39.8081 17.2933 39.2118 17.5784 38.3441C17.9349 38.2431 18.2851 38.1359 18.6323 38.0286C18.7873 38.27 18.9961 38.4707 19.2417 38.6144C19.4873 38.758 19.7628 38.8406 20.0458 38.8553C20.9137 38.8553 21.6638 38.0601 21.9737 36.9274L22.7301 36.675L22.8571 36.6371C23.1 37.1167 23.4806 37.5096 23.9482 37.7636C23.474 37.915 22.9904 38.0917 22.5038 38.2842C17.8202 40.1426 12.8793 41.4425 8.17715 39.9186C11.2117 42.408 19.1933 40.5117 22.9501 39.1613C25.7286 38.1528 28.6645 37.6684 31.6137 37.732C31.5331 38.1296 31.437 38.5176 31.3347 38.8868C28.7087 38.9804 26.0145 39.87 23.7194 40.6279C22.2218 41.1225 20.8941 41.5609 19.866 41.6855C21.3078 41.9163 23.3336 41.4019 25.4133 40.8739C27.3709 40.3769 29.3764 39.8677 30.9876 39.9564C30.6652 40.843 30.2808 41.4993 29.8717 41.7896ZM18.4153 35.5139C18.4174 35.5496 18.4167 35.5854 18.416 35.6212L18.4156 35.6443C18.4154 35.6544 18.4153 35.6646 18.4153 35.6748V35.7063C18.4045 36.2489 18.5103 36.7874 18.7253 37.284C18.824 37.5024 18.9617 37.7003 19.1314 37.8677C19.2964 38.0349 19.5184 38.131 19.7513 38.1359C20.1418 38.1359 20.4921 37.8203 20.7308 37.3408C20.7657 37.2748 20.7958 37.2062 20.8207 37.1357C20.8423 37.0789 20.8641 37.022 20.8827 36.9653C20.9416 36.7819 20.9861 36.5941 21.0159 36.4037L22.1287 35.9745L22.3209 35.902L22.5255 35.8231C22.3886 35.3519 22.3196 34.863 22.3209 34.3717V34.2455L21.9334 34.3685L21.7475 34.4316C21.6367 34.4665 21.526 34.506 21.4134 34.5461L21.3538 34.5673L20.9509 34.7125C20.9228 34.5971 20.8886 34.4833 20.8486 34.3717C20.8324 34.3184 20.8117 34.2667 20.7866 34.2171C20.7649 34.1666 20.7432 34.1193 20.7184 34.0719C20.4797 33.5797 20.1294 33.2737 19.7389 33.2737C19.119 33.2737 18.6137 34.0278 18.4587 35.0532C18.4346 35.2057 18.4201 35.3595 18.4153 35.5139ZM16.3169 34.5231C16.5563 34.6043 16.7765 34.735 16.9638 34.9072C17.1511 35.0794 17.3012 35.2891 17.4048 35.5233C17.597 35.4413 17.7892 35.3561 17.9783 35.2678C18.0278 34.5505 18.2809 33.8632 18.7067 33.2895C17.9204 33.6692 17.1819 34.0625 16.4838 34.4343L16.3169 34.5231ZM13.4776 35.9272C13.7143 36.2002 13.888 36.5236 13.9859 36.8738L14.2556 36.7854C14.2917 36.2894 14.4379 35.8083 14.6833 35.3782C14.268 35.5865 13.865 35.7726 13.4776 35.9272ZM10.257 37.9087C10.2524 37.8029 10.2411 37.6975 10.2229 37.5932H10.2384C10.1485 37.0063 9.85097 36.574 9.50071 36.574C9.15044 36.574 8.89627 36.9527 8.79088 37.4796C8.77787 37.5642 8.76959 37.6496 8.76609 37.7352C8.76137 37.815 8.76137 37.8951 8.76609 37.975C8.76289 38.2657 8.81663 38.5543 8.92417 38.8237C8.97858 38.9592 9.05862 39.0825 9.15975 39.1866H9.12255C9.17046 39.2453 9.23002 39.2931 9.29732 39.3268C9.36462 39.3605 9.43815 39.3794 9.51311 39.3822C9.58335 39.3827 9.65261 39.3653 9.71459 39.3317H9.66809C9.81921 39.2717 9.9452 39.1602 10.0245 39.0162C10.1966 38.7045 10.2823 38.3512 10.2725 37.9939L10.257 37.9087ZM11.1435 39.054C11.005 38.6788 10.9346 38.2811 10.9359 37.8803H10.8646C10.8662 37.9097 10.8662 37.9392 10.8646 37.9686C10.8687 38.339 10.788 38.7052 10.629 39.0383C10.8026 39.0488 10.9741 39.054 11.1435 39.054ZM10.3252 36.4668C10.6051 36.7684 10.7832 37.153 10.8336 37.5648H10.9514C10.9774 37.1844 11.072 36.8122 11.2303 36.4668C10.9324 36.4836 10.6337 36.4841 10.3358 36.4674L10.3252 36.4668ZM14.5315 38.6155C14.3327 38.1635 14.2272 37.6749 14.2215 37.1798L14.0572 37.2272C13.7947 37.3089 13.5352 37.3812 13.2758 37.4504C13.2676 37.335 13.2512 37.2203 13.2265 37.1073C13.2497 37.2205 13.2662 37.3351 13.2758 37.4504L13.273 37.4512C13.2607 37.3351 13.24 37.2202 13.211 37.1073C13.1426 36.7588 12.9718 36.4397 12.7213 36.1923C12.644 36.1256 12.5559 36.0733 12.4609 36.0376L12.3772 36.0156H12.2904C12.2334 36.0155 12.1769 36.0251 12.123 36.044C11.9418 36.1231 11.7883 36.2562 11.6829 36.4257H11.6519C11.4499 36.7521 11.3286 37.1235 11.2985 37.508H11.3171C11.2981 37.6207 11.2857 37.7345 11.2799 37.8487V37.8677C11.2743 38.2734 11.3535 38.6756 11.5124 39.0477C11.5817 39.2042 11.6771 39.3473 11.7945 39.4705H11.7666C11.8295 39.5472 11.9075 39.6096 11.9956 39.6536C12.0837 39.6977 12.1799 39.7223 12.278 39.7261C12.3971 39.7187 12.5129 39.6833 12.6162 39.6225C12.7195 39.5617 12.8074 39.4773 12.8731 39.3759H12.8359C12.9521 39.2294 13.0433 39.0641 13.1056 38.8868H13.1273C13.4187 38.8405 13.71 38.7869 14.0014 38.7259C14.1936 38.6943 14.361 38.6565 14.5315 38.6155ZM18.3037 37.4417C18.088 36.9441 17.9711 36.4079 17.9597 35.8641C17.8388 35.9083 17.7148 35.9556 17.5939 36.0061L16.7756 36.3216C16.7357 36.171 16.6828 36.0242 16.6175 35.883H16.6361C16.4284 35.4098 16.1092 35.1069 15.7527 35.1069C15.2289 35.1069 14.7887 35.7695 14.6647 36.6624H14.6864L14.6776 36.7257C14.6615 36.8404 14.6452 36.9563 14.6399 37.0789C14.6384 37.1083 14.6384 37.1378 14.6399 37.1672C14.6325 37.6434 14.7322 38.1151 14.9313 38.546C15.0094 38.7082 15.1142 38.8555 15.2413 38.9815H15.2196C15.3558 39.1271 15.5429 39.2121 15.7403 39.2181C15.9058 39.2034 16.0643 39.1438 16.1995 39.0456C16.3347 38.9474 16.4416 38.8141 16.509 38.6596C16.6306 38.4528 16.7205 38.2283 16.7756 37.9939C17.0856 37.8866 17.4172 37.7762 17.7365 37.6784L18.3037 37.4417ZM23.2012 31.6014C22.2057 31.8542 21.2298 32.1811 20.2813 32.5795C20.5771 32.6499 20.8536 32.7868 21.0906 32.98C21.3277 33.1733 21.5193 33.4181 21.6514 33.6965C21.8156 33.6334 21.98 33.5702 22.1411 33.5135L22.4077 33.422C22.5169 32.7567 22.7899 32.1303 23.2012 31.6014ZM25.8545 34.3717C25.8558 34.0881 25.8309 33.805 25.7801 33.5261C25.7287 33.2236 25.6402 32.929 25.5167 32.6489C25.2408 32.0179 24.8192 31.6172 24.345 31.6172C23.725 31.6172 23.2074 32.2798 22.9718 33.2358C22.9718 33.2579 22.9718 33.28 22.9563 33.3021C22.9462 33.3166 22.9413 33.3529 22.9366 33.3886C22.9341 33.4072 22.9316 33.4258 22.9284 33.4409C22.8878 33.6565 22.8619 33.8748 22.8509 34.094V34.3685C22.8423 34.8042 22.8955 35.2389 23.009 35.659C23.0908 35.9512 23.214 36.2297 23.3748 36.4857C23.4699 36.6682 23.6086 36.8235 23.7782 36.937C23.9477 37.0506 24.1427 37.1189 24.345 37.1357C24.8533 37.1357 25.3028 36.6718 25.5848 35.9619C25.6158 35.883 25.6437 35.801 25.6685 35.719C25.6933 35.6369 25.7181 35.5486 25.7367 35.4602C25.781 35.2766 25.8121 35.09 25.8297 34.9018C25.8478 34.7257 25.8561 34.5487 25.8545 34.3717ZM26.7038 32.4786C28.4339 32.2847 30.1809 32.3091 31.9051 32.5511C31.8538 32.1396 31.7037 31.7473 31.468 31.4089C29.5695 31.024 27.625 30.9315 25.6995 31.1344C26.1556 31.4842 26.504 31.9593 26.7038 32.5038V32.4786ZM31.9299 35.7032C30.2497 35.5184 28.5542 35.5332 26.8774 35.7474C26.7464 36.2431 26.5164 36.7061 26.2017 37.1073C28.0537 36.662 29.9467 36.4166 31.8493 36.3753C31.8772 36.1607 31.9051 35.9367 31.9299 35.7127V35.7032ZM32.0135 33.6775C30.3508 33.3869 28.6601 33.2969 26.9766 33.4094C27.034 33.7215 27.0631 34.0384 27.0634 34.3559V34.6714C28.704 34.4168 30.3668 34.3438 32.0228 34.4537C32.027 34.1887 32.0239 33.9331 32.0135 33.687V33.6775Z" fill="#C2C6D1"/>
<path fill-rule="evenodd" clip-rule="evenodd" d="M5.11425 26.9276V18.0596H4.04529C3.88066 18.2978 3.69258 18.5196 3.48374 18.7219C3.22665 18.9404 3 19.0994 3 19.0994V20.318C3.27529 20.2458 3.52917 20.1107 3.74083 19.9239C3.85344 19.8238 3.95545 19.7129 4.04529 19.5928V26.9276H3.3349V27.8912H5.70286V26.9276H5.11425ZM10.1546 18.5364C10.3269 18.7998 10.4217 19.1046 10.4286 19.4173V26.3713H10.4083C10.4083 26.6527 10.3779 27.4342 9.82988 27.6958C9.09243 28.0634 8.22643 27.9574 7.77313 27.9078C7.53832 27.8849 7.30936 27.8222 7.09657 27.7223V26.5335C7.53522 26.828 8.06052 26.9735 8.59177 26.9474C9.42732 26.8912 9.34952 26.3183 9.34952 26.3183V24.0003C9.21365 24.1106 9.06061 24.1989 8.89622 24.2619C8.64302 24.3716 8.36544 24.4165 8.08964 24.3921C7.81384 24.3678 7.54891 24.2751 7.31984 24.1228C6.89022 23.7685 6.96464 22.9671 6.96464 22.9671V19.4173C6.95778 19.0785 7.06474 18.747 7.2691 18.4735C7.67165 18.0695 8.04714 18.0066 8.71356 18.0066C8.97843 17.9839 9.24512 18.0198 9.49395 18.1115C9.74278 18.2032 9.96741 18.3484 10.1513 18.5364H10.1546ZM9.34952 19.4934C9.34262 19.3965 9.29815 19.3059 9.22521 19.24C9.15226 19.1741 9.05635 19.138 8.95712 19.1391H8.44293C8.34357 19.1364 8.2471 19.172 8.17433 19.2383C8.10156 19.3046 8.05831 19.3962 8.05391 19.4934V23.04C8.05216 23.1209 8.06836 23.2012 8.10139 23.2754C8.13442 23.3496 8.1835 23.4159 8.24525 23.4697C8.30699 23.5236 8.37992 23.5636 8.45902 23.5872C8.53812 23.6108 8.6215 23.6173 8.70341 23.6062C9.34276 23.6062 9.35629 22.9075 9.35629 22.9075L9.34952 19.4934ZM48.6408 21.8743C49.0637 22.2055 48.996 23.0234 48.996 23.0234V26.5865C49.0019 26.9231 48.895 27.2522 48.6916 27.5236C48.2924 27.9309 47.9101 27.9939 47.2505 27.9939C46.9855 28.0156 46.7189 27.9796 46.4697 27.8886C46.2206 27.7976 45.9951 27.6537 45.8094 27.4673C45.6404 27.2025 45.5458 26.8986 45.5354 26.5865V19.606H45.5557C45.5557 19.3312 45.5861 18.5497 46.1342 18.2815C46.8682 17.9073 47.741 18.0132 48.1875 18.0662C48.4301 18.0883 48.6669 18.1511 48.8878 18.2516V19.4769C48.4466 19.1817 47.9197 19.0342 47.3858 19.0563C46.5469 19.1226 46.6213 19.6888 46.6213 19.6888V22.0068C46.758 21.8968 46.9108 21.8075 47.0746 21.7419C47.3281 21.6321 47.6062 21.5879 47.8822 21.6134C48.1582 21.6389 48.4229 21.7333 48.651 21.8876L48.6408 21.8743ZM47.9169 22.9605C47.9167 22.8794 47.8988 22.7993 47.8644 22.7255C47.83 22.6517 47.7799 22.586 47.7174 22.5327C47.655 22.4794 47.5816 22.4398 47.5022 22.4165C47.4229 22.3932 47.3394 22.3867 47.2573 22.3976C46.6281 22.3976 46.6111 23.0929 46.6111 23.0929V26.5103C46.6188 26.6061 46.6632 26.6955 46.7353 26.7605C46.8075 26.8256 46.9021 26.8616 47.0002 26.8614H47.5245C47.6239 26.865 47.7207 26.8302 47.7941 26.7645C47.8676 26.6988 47.9116 26.6076 47.9169 26.5103V22.9605ZM41.3069 19.159H43.7865L41.1344 27.9343H42.3048L45.2479 18.0927H41.3069V19.159Z" fill="#107C10"/>
</svg>
