<svg width="50" height="50" viewBox="0 0 50 50" fill="none" xmlns="http://www.w3.org/2000/svg">
<circle cx="25" cy="25" r="25" fill="white"/>
<circle cx="25" cy="25" r="23.25" stroke="#E0E2E7" stroke-width="0.5" stroke-dasharray="1 1"/>
<circle cx="25" cy="25" r="21.5" fill="white"/>
<path d="M27.9242 7.60372C27.4594 6.86868 26.0663 5.99994 23.9401 6C22.3465 6.00005 19.7569 6.6014 18.3625 8.60605C16.9681 10.6107 16.7689 15.8227 17.5657 16.8251C18.3625 17.8274 16.7689 17.226 16.7689 18.2283C16.7689 19.2307 17.1673 21.0348 17.9641 21.2353C18.7609 21.4358 18.7609 21.4358 18.7609 22.6386C18.7609 23.8414 19.1593 24.6432 19.9561 25.0441C20.2217 25.5119 20.6732 26.688 20.3545 27.6502C19.9561 28.853 19.7569 30.4567 16.1713 31.6595C12.5856 32.8623 9 34.466 9 38.4753C10.1155 38.4753 27.5527 38.4753 32.732 38.4753" stroke="#919399" stroke-linecap="round" stroke-linejoin="round"/>
<path fill-rule="evenodd" clip-rule="evenodd" d="M27.6454 7.73728C27.6308 8.01304 27.8426 8.24836 28.1184 8.26287C28.8598 8.30189 29.4276 8.71165 29.8693 9.40854C30.3189 10.1179 30.6095 11.0884 30.7663 12.126C30.9222 13.1572 30.9402 14.2154 30.8714 15.0711C30.837 15.4991 30.7816 15.867 30.7146 16.1496C30.6423 16.4546 30.5716 16.5932 30.5462 16.6249C30.4333 16.766 30.3372 16.9095 30.2783 17.0554C30.218 17.2046 30.1787 17.4035 30.2566 17.6114C30.333 17.8151 30.4856 17.9284 30.5904 17.9883C30.6928 18.0468 30.8045 18.085 30.8782 18.1096C30.8926 18.1144 30.9064 18.1189 30.9195 18.1233C31.0775 18.1758 31.1494 18.1997 31.2034 18.239C31.2048 18.24 31.2062 18.2409 31.2076 18.2418C31.2197 18.2494 31.2344 18.2587 31.2344 18.3332C31.2344 18.7796 31.1428 19.4241 30.9609 19.9699C30.87 20.2426 30.7642 20.4671 30.6528 20.625C30.5378 20.7879 30.4525 20.8306 30.4165 20.8396C30.4077 20.8418 30.3989 20.8439 30.3901 20.8461C30.2139 20.8902 30.0319 20.9356 29.8843 20.9971C29.7085 21.0703 29.5279 21.1868 29.4057 21.4006C29.2979 21.5892 29.2675 21.8015 29.2539 21.9895C29.2401 22.1791 29.2401 22.4187 29.2401 22.7018L29.2401 22.7206C29.2401 23.8033 28.8899 24.3816 28.3199 24.6665C28.2316 24.7107 28.1584 24.78 28.1094 24.8657C27.9532 25.139 27.7549 25.594 27.637 26.1153C27.52 26.6328 27.4709 27.266 27.6703 27.8644C27.7576 28.1264 28.0408 28.268 28.3028 28.1806C28.5647 28.0933 28.7063 27.8102 28.619 27.5482C28.4994 27.1893 28.5167 26.759 28.6124 26.3358C28.6901 25.9922 28.812 25.6867 28.9139 25.4819C29.8354 24.9477 30.2401 23.9668 30.2401 22.7206C30.2401 22.4137 30.2404 22.2109 30.2512 22.062C30.2565 21.9889 30.2637 21.9448 30.2689 21.9202C30.3383 21.8913 30.4446 21.8633 30.6591 21.8097C31.0219 21.719 31.2856 21.4625 31.4698 21.2017C31.6575 20.9357 31.801 20.6118 31.9096 20.2862C32.1264 19.6355 32.2344 18.884 32.2344 18.3332C32.2344 17.9181 32.0533 17.6206 31.7916 17.4303C31.6491 17.3266 31.4831 17.2586 31.3545 17.2136C31.5129 16.9967 31.6152 16.6859 31.6877 16.3802C31.7695 16.035 31.8309 15.6145 31.8682 15.1513C31.9427 14.2246 31.9233 13.0891 31.7551 11.9765C31.5879 10.8703 31.2677 9.7468 30.7139 8.87317C30.1523 7.98711 29.3241 7.32495 28.1709 7.26425C27.8952 7.24974 27.6599 7.46152 27.6454 7.73728Z" fill="#919399"/>
<mask id="path-6-outside-1_585_755" maskUnits="userSpaceOnUse" x="23.6133" y="23.1111" width="25" height="22" fill="black">
<rect fill="white" x="23.6133" y="23.1111" width="25" height="22"/>
<path fill-rule="evenodd" clip-rule="evenodd" d="M26.3335 25.8657C24.0399 28.1592 24.0399 31.8778 26.3335 34.1714L36.1619 43.9998L36.1671 43.9946L36.1724 43.9998L46.0008 34.1714C48.2944 31.8778 48.2944 28.1592 46.0008 25.8657C43.6614 23.5262 39.8684 23.5262 37.529 25.8657L36.1671 27.2275L34.8053 25.8657C32.4659 23.5262 28.6729 23.5262 26.3335 25.8657Z"/>
</mask>
<path fill-rule="evenodd" clip-rule="evenodd" d="M26.3335 25.8657C24.0399 28.1592 24.0399 31.8778 26.3335 34.1714L36.1619 43.9998L36.1671 43.9946L36.1724 43.9998L46.0008 34.1714C48.2944 31.8778 48.2944 28.1592 46.0008 25.8657C43.6614 23.5262 39.8684 23.5262 37.529 25.8657L36.1671 27.2275L34.8053 25.8657C32.4659 23.5262 28.6729 23.5262 26.3335 25.8657Z" fill="white"/>
<path d="M26.3335 34.1714L25.9799 34.5249H25.9799L26.3335 34.1714ZM26.3335 25.8657L25.9799 25.5121L26.3335 25.8657ZM36.1619 43.9998L35.8084 44.3534L36.1619 44.707L36.5155 44.3534L36.1619 43.9998ZM36.1671 43.9946L36.5207 43.6411L36.1671 43.2875L35.8136 43.6411L36.1671 43.9946ZM36.1724 43.9998L35.8188 44.3534L36.1724 44.707L36.5259 44.3534L36.1724 43.9998ZM46.0008 34.1714L46.3544 34.5249L46.0008 34.1714ZM46.0008 25.8657L45.6473 26.2192V26.2192L46.0008 25.8657ZM37.529 25.8657L37.8825 26.2192V26.2192L37.529 25.8657ZM36.1671 27.2275L35.8136 27.5811L36.1671 27.9346L36.5207 27.5811L36.1671 27.2275ZM34.8053 25.8657L35.1589 25.5121L34.8053 25.8657ZM26.687 33.8178C24.5887 31.7195 24.5887 28.3175 26.687 26.2192L25.9799 25.5121C23.4911 28.0009 23.4911 32.0361 25.9799 34.5249L26.687 33.8178ZM36.5155 43.6463L26.687 33.8178L25.9799 34.5249L35.8084 44.3534L36.5155 43.6463ZM35.8136 43.6411L35.8083 43.6463L36.5155 44.3534L36.5207 44.3481L35.8136 43.6411ZM35.8136 44.3482L35.8188 44.3534L36.5259 43.6463L36.5207 43.6411L35.8136 44.3482ZM36.5259 44.3534L46.3544 34.5249L45.6473 33.8178L35.8188 43.6463L36.5259 44.3534ZM46.3544 34.5249C48.8432 32.0361 48.8432 28.0009 46.3544 25.5121L45.6473 26.2192C47.7456 28.3175 47.7456 31.7195 45.6473 33.8178L46.3544 34.5249ZM46.3544 25.5121C43.8197 22.9774 39.7101 22.9774 37.1754 25.5121L37.8825 26.2192C40.0267 24.075 43.5031 24.075 45.6473 26.2192L46.3544 25.5121ZM37.1754 25.5121L35.8136 26.874L36.5207 27.5811L37.8825 26.2192L37.1754 25.5121ZM34.4518 26.2192L35.8136 27.5811L36.5207 26.874L35.1589 25.5121L34.4518 26.2192ZM26.687 26.2192C28.8312 24.075 32.3076 24.075 34.4518 26.2192L35.1589 25.5121C32.6242 22.9774 28.5146 22.9774 25.9799 25.5121L26.687 26.2192Z" fill="#107C10" mask="url(#path-6-outside-1_585_755)"/>
<path fill-rule="evenodd" clip-rule="evenodd" d="M45.3429 26.508C47.2949 28.4599 47.2949 31.6246 45.3429 33.5765L36.171 42.7484L36.1668 42.7442L36.1627 42.7483L27.0665 33.6522C25.1146 31.7003 25.1146 28.5356 27.0665 26.5837C29.0575 24.5927 32.2855 24.5927 34.2764 26.5837L36.1669 28.4741L38.133 26.508C40.124 24.517 43.352 24.517 45.3429 26.508Z" fill="#CACCDC"/>
</svg>
