<svg width="100" height="81" viewBox="0 0 100 81" fill="none" xmlns="http://www.w3.org/2000/svg">
<path fill-rule="evenodd" clip-rule="evenodd" d="M6.33649 26.2411C6.33649 26.2411 3.33608 26.83 3.23891 28.9647C3.12997 31.4852 0 71.9746 0 71.9746H3.67764L4.00153 66.6745L6.67216 66.0326L6.98722 71.9216H11.03L7.72628 25.9437L6.33649 26.2381V26.2411ZM4.19292 63.2089L5.25587 46.3312H5.67104L6.49844 62.6082L4.19292 63.2089ZM26.6798 37.3565C28.7674 37.6126 28.6791 40.454 28.6379 41.0312V68.6061C28.6791 69.195 28.7674 72.0217 26.6798 72.2808C25.8554 72.3809 24.127 71.6242 22.4928 70.8557V78.1197C22.4928 79.2238 21.4681 79.7509 20.4317 80.0424C19.8884 80.2003 19.3344 80.3184 18.7739 80.3957V70.8939C17.128 71.6654 15.3878 72.428 14.5633 72.3279C12.2402 72.0334 12.6112 68.5443 12.6112 68.5443V41.1077C12.6112 41.1077 12.2402 37.6126 14.5633 37.3241C15.3878 37.221 17.128 37.9895 18.7739 38.761V35.7782C18.7739 34.6799 19.7986 34.1529 20.835 33.8584C21.38 33.7 21.9361 33.5828 22.4987 33.508V38.7845C24.1329 38.016 25.8613 37.2593 26.6857 37.3565H26.6798ZM16.8895 68.397C16.3477 68.3646 16.333 67.6639 16.3389 67.4283V42.0735C16.3389 41.779 16.439 41.2844 16.8895 41.2608C17.34 41.2373 18.3234 41.7349 18.7739 41.9322V67.7227C18.3234 67.9259 17.3606 68.4265 16.8895 68.4029V68.397ZM24.3507 68.3646C23.8914 68.3911 22.9492 67.9024 22.4928 67.6992V41.9528C22.9492 41.7467 23.8914 41.2608 24.3507 41.2873C25.0015 41.3197 24.8984 42.3385 24.8984 42.3385V67.3194C24.8984 67.3194 25.0015 68.3116 24.3507 68.3646ZM39.8887 44.5439V68.5266C39.8828 69.7181 40.113 70.899 40.5659 72.0011H36.8736C36.8329 71.7729 36.7738 71.5484 36.6969 71.3297C36.629 71.1453 36.5739 70.9564 36.532 70.7644C36.532 70.7644 34.2177 72.1836 33.1253 72.1424C31.3174 72.0806 30.5842 70.8292 30.5842 67.9171V62.6965C30.5842 58.4712 31.1171 56.2187 34.4944 50.0177C37.8717 43.8166 35.4396 40.6808 33.7495 40.9428C32.7013 41.1077 31.7472 42.5387 31.7472 42.5387L30.7609 38.8199C31.9616 37.947 33.4363 37.5352 34.9155 37.6597C38.1367 37.9542 39.8887 40.3569 39.8887 44.5439ZM36.2346 67.5902C36.2346 67.7021 35.4602 68.0849 35.0568 68.2351C34.7624 68.347 34.3767 68.1909 34.3767 67.393V57.6556C34.3767 55.6975 34.7712 55.6269 35.1982 54.4903C35.4925 53.6117 35.7054 52.7079 35.8342 51.7902H36.2287L36.2346 67.5902ZM63.7448 44.5439V68.5266C63.7389 69.7181 63.969 70.899 64.422 72.0011H60.7238C60.6853 71.7727 60.6271 71.5481 60.55 71.3297C60.4815 71.1458 60.4273 70.9567 60.3881 70.7644C60.3881 70.7644 58.0708 72.1836 56.9843 72.1424C55.1705 72.0806 54.4403 70.8292 54.4403 67.9171V62.6965C54.4403 58.4712 54.9703 56.2187 58.3476 50.0177C61.7249 43.8166 59.2927 40.6808 57.6026 40.9428C56.5514 41.1077 55.5974 42.5387 55.5974 42.5387L54.614 38.8199C55.8163 37.9456 57.2933 37.5338 58.7745 37.6597C61.9899 37.9542 63.7448 40.3569 63.7448 44.5439ZM60.0848 67.5902C60.0848 67.7021 59.1014 68.1791 58.7038 68.3175C58.4094 68.4294 58.2386 68.188 58.2386 66.9866V57.6556C58.2386 55.6975 58.6332 55.6269 59.0572 54.4903C59.3518 53.6116 59.5657 52.7078 59.6961 51.7902H60.0848V67.5902ZM48.5631 53.024H46.0897V37.8688H42.3562V71.9746H46.0897V55.8889H48.5631V71.9746H52.2937V37.8688H48.5631V53.024ZM81.9327 53.7218H81.7355V37.8688H78.0048V71.9746H79.1149C79.1149 71.9746 80.8992 71.5918 81.2349 70.0018C81.3733 69.354 81.2025 70.1519 83.9055 55.6063H84.2V71.9746H87.9306V37.8688H84.9126L81.9327 53.7218ZM96.976 37.8688L93.9962 53.7218H93.799V37.8688H90.0654V71.9746H91.1813C91.1813 71.9746 92.948 71.5918 93.2984 70.0018C93.4368 69.354 93.2631 70.1519 95.969 55.6063H96.2635V71.9746H100V37.8688H96.976ZM75.2547 67.2722C75.2547 67.2722 74.2771 68.9241 72.481 69.0949C70.6849 69.2656 70.1608 68.0967 69.9694 67.5814C69.8496 67.166 69.7891 66.7358 69.7898 66.3035V43.3102C69.7888 42.8778 69.8492 42.4476 69.9694 42.0323C70.1608 41.517 70.8321 40.3215 72.6194 40.4864C73.6446 40.5669 74.5968 41.0482 75.2694 41.8262L75.9614 38.4047C75.9614 38.4047 74.5039 37.2269 71.5447 37.3535C68.5855 37.4801 66.966 39.235 66.3771 40.8869C66.1013 41.6512 65.985 42.4639 66.0356 43.2748V66.3506C65.985 67.1626 66.1012 67.9762 66.3771 68.7415C66.966 70.3816 68.5796 72.1453 71.5447 72.2749C74.5098 72.4045 76.0026 71.1442 76.0026 71.1442L75.5079 67.2546L75.2547 67.2722ZM97.7151 33.0428C99.2639 31.1348 98.5984 29.4064 98.5984 29.4064C97.6543 30.2143 96.5693 30.8411 95.3978 31.2555C94.0893 31.7335 92.7415 32.096 91.3698 32.3391L92.3091 35.4779C92.3091 35.4779 96.1692 34.9479 97.7151 33.0428ZM52.6647 7.09028C52.6647 7.09028 51.7961 6.94305 51.7961 6.20694V0C51.7961 0 52.6647 0.244391 52.6647 1.03351V7.09028ZM58.1473 3.85136L57.9206 4.27831C57.9206 4.27831 57.8058 4.64048 58.4742 5.27943C57.2964 5.65927 55.5827 3.33608 53.0917 3.77775C56.9607 4.72587 56.5397 6.575 60.2791 6.86944C60.2791 6.86944 59.3752 5.60038 59.1838 4.9467C59.0395 4.45498 59.5666 3.71003 59.5666 3.71003C57.7999 3.41558 56.4248 0.915729 53.1683 1.1454C56.4013 2.00224 56.9372 3.44797 58.1621 3.82781L58.1473 3.85136ZM34.2 20.2226V12.3373H33.2695C33.1262 12.5491 32.9625 12.7464 32.7808 12.9262C32.557 13.1205 32.3597 13.2619 32.3597 13.2619V14.3454C32.5993 14.2813 32.8203 14.1612 33.0045 13.9951C33.1026 13.9061 33.1913 13.8074 33.2695 13.7006V20.2226H32.6512V21.0794H34.7123V20.2226H34.2ZM38.5872 12.7613C38.7372 12.9955 38.8197 13.2665 38.8257 13.5445V19.7279H38.8081C38.8081 19.9782 38.7816 20.6731 38.3046 20.9057C37.6627 21.2326 36.9089 21.1383 36.5143 21.0942C36.3099 21.0739 36.1107 21.0181 35.9254 20.9293V19.8722C36.3073 20.1341 36.7645 20.2634 37.2269 20.2403C37.9542 20.1902 37.8865 19.6808 37.8865 19.6808V17.6197C37.7682 17.7178 37.635 17.7963 37.4919 17.8523C37.2715 17.9499 37.0299 17.9898 36.7898 17.9681C36.5498 17.9465 36.3192 17.8641 36.1198 17.7286C35.7458 17.4136 35.8106 16.701 35.8106 16.701V13.5445C35.8046 13.2433 35.8977 12.9485 36.0756 12.7054C36.426 12.3462 36.7528 12.2902 37.3329 12.2902C37.5635 12.2701 37.7956 12.3019 38.0122 12.3835C38.2288 12.465 38.4243 12.5941 38.5843 12.7613H38.5872ZM37.8865 13.6123C37.8805 13.5261 37.8417 13.4455 37.7783 13.3869C37.7148 13.3283 37.6313 13.2963 37.5449 13.2972H37.0973C37.0109 13.2948 36.9269 13.3265 36.8635 13.3854C36.8002 13.4444 36.7626 13.5258 36.7587 13.6123V16.7658C36.7572 16.8377 36.7713 16.9092 36.8001 16.9751C36.8288 17.0411 36.8715 17.1001 36.9253 17.1479C36.979 17.1958 37.0425 17.2314 37.1114 17.2524C37.1802 17.2733 37.2528 17.2791 37.3241 17.2693C37.8806 17.2693 37.8924 16.648 37.8924 16.648L37.8865 13.6123ZM75.0162 15.7293C75.3843 16.0238 75.3254 16.7511 75.3254 16.7511V19.9193C75.3305 20.2186 75.2374 20.5113 75.0604 20.7526C74.7129 21.1148 74.3802 21.1707 73.806 21.1707C73.5754 21.19 73.3433 21.158 73.1264 21.0771C72.9096 20.9962 72.7133 20.8683 72.5517 20.7025C72.4045 20.4671 72.3223 20.1969 72.3132 19.9193V13.7124H72.3308C72.3308 13.468 72.3573 12.7731 72.8343 12.5346C73.4733 12.2019 74.233 12.2961 74.6216 12.3432C74.8327 12.3629 75.0389 12.4187 75.2311 12.5081V13.5976C74.8471 13.3351 74.3885 13.2039 73.9238 13.2236C73.1936 13.2825 73.2583 13.786 73.2583 13.786V15.8471C73.3773 15.7493 73.5103 15.6699 73.6529 15.6116C73.8736 15.514 74.1156 15.4746 74.3559 15.4973C74.5961 15.52 74.8265 15.604 75.025 15.7411L75.0162 15.7293ZM74.3861 16.6951C74.3859 16.623 74.3703 16.5518 74.3404 16.4862C74.3104 16.4206 74.2668 16.3621 74.2124 16.3147C74.1581 16.2673 74.0942 16.2321 74.0252 16.2114C73.9561 16.1907 73.8834 16.1849 73.8119 16.1946C73.2642 16.1946 73.2495 16.8129 73.2495 16.8129V19.8516C73.2562 19.9367 73.2948 20.0162 73.3576 20.0741C73.4204 20.132 73.5027 20.164 73.5881 20.1637H74.0445C74.131 20.1669 74.2153 20.136 74.2792 20.0776C74.3431 20.0192 74.3815 19.938 74.3861 19.8516V16.6951ZM68.6326 13.3149H70.7909L68.4824 21.1177H69.5012L72.0629 12.3668H68.6326V13.3149ZM49.1903 7.65562C52.5764 10.3469 53.5805 14.8725 52.2378 20.3404C54.6523 16.0032 54.5757 9.80213 49.8646 6.30999C46.8141 4.37842 41.2343 2.94447 38.0896 3.53336C40.825 3.72475 45.8012 4.95848 49.1903 7.65562ZM58.6479 10.394C60.1201 11.6071 60.9269 14.6929 60.9269 14.6929C60.9269 14.6929 61.4687 11.8662 59.8021 9.63135C57.635 7.62911 51.8108 7.52017 51.8108 7.52017C51.8108 7.52017 55.9714 8.17384 58.6479 10.3851V10.394ZM64.5722 22.7431C65.9325 21.315 68.0319 16.5832 65.9031 12.2549C62.9792 10.3351 60.8563 10.0112 60.8563 10.0112C63.6152 11.2331 67.8052 14.8696 64.5722 22.7342V22.7431ZM43.2071 10.5235C41.8777 7.37829 39.3665 4.8808 36.214 3.56869C37.274 4.97321 42.3591 8.04723 43.7842 16.7481L43.6193 16.33L38.178 26.777C38.5153 26.6743 38.8119 26.4683 39.026 26.1881C39.4294 25.5992 43.2277 18.6149 43.8696 17.4283C43.9462 17.976 44.007 18.5462 44.0522 19.139L39.712 26.9713C40.048 26.8676 40.3434 26.6617 40.5571 26.3824C40.8692 25.9349 42.9127 22.4898 44.1228 20.467C44.1774 22.3136 44.0977 24.1617 43.8843 25.9967C43.8843 25.9967 44.4732 25.7729 44.753 24.763C45.4125 22.4604 46.0161 16.8276 43.2071 10.5147V10.5235ZM67.7669 25.8642C67.0279 24.2359 65.0992 23.5675 64.2336 23.3437C64.0653 21.6373 63.5979 19.9738 62.8526 18.4294L64.8283 17.2516C64.8283 17.2516 65.1022 15.8295 64.3543 15.7117C63.6064 15.5939 59.4576 14.8813 59.4576 14.8813C59.1593 15.6869 58.7468 16.4455 58.2327 17.1339V20.7173C58.2409 20.93 58.313 21.1354 58.4396 21.3066C58.5661 21.4778 58.7413 21.6069 58.9423 21.6772L59.2604 17.5932C59.6534 17.1255 59.9668 16.5963 60.1879 16.0267C60.1879 16.0267 61.5835 16.2593 62.0782 16.3595C62.5729 16.4596 62.4198 17.1574 62.4198 17.1574L60.7826 18.026C64.6105 27.2746 60.3321 33.0016 60.3321 33.0016C60.3321 33.0016 61.3156 32.8985 62.2873 31.7649C62.7972 31.8519 63.2979 31.986 63.7831 32.1654C63.7831 31.603 63.2236 31.282 62.7702 31.0995C62.9594 30.7952 63.1238 30.4761 63.2619 30.1455C63.7927 30.3196 64.3023 30.5527 64.7812 30.8404C64.8696 30.0012 64.1276 29.4918 63.6034 29.2415C63.6947 28.9706 63.7772 28.7027 63.8478 28.4377C64.4815 28.6449 65.0891 28.9245 65.6587 29.271C65.5703 28.2816 64.6546 27.7663 64.0628 27.5367C64.1158 27.2805 64.157 27.0243 64.1923 26.7711C64.8494 27.0207 65.4734 27.35 66.0503 27.7516C65.9855 26.8477 65.0315 26.1793 64.2836 25.7935C64.3042 25.4726 64.3131 25.1546 64.3131 24.8425C65.061 25.0545 66.6922 25.6816 66.7864 27.1185C66.8895 28.685 65.9384 30.9699 64.6723 32.4186C66.224 32.1595 67.2929 30.2426 67.4784 29.8098C68.0143 28.5113 68.2439 27.0714 67.7669 25.8554V25.8642ZM52.2025 24.3213C52.1809 24.3196 52.1592 24.3196 52.1377 24.3213C52.5882 24.5245 52.9268 25.4078 52.9268 26.4678C52.9268 27.5278 52.5882 28.4082 52.1377 28.6114C52.1592 28.6131 52.1809 28.6131 52.2025 28.6114C52.7914 28.6114 53.2949 27.6485 53.2949 26.456C53.2949 25.2635 52.8061 24.3213 52.2025 24.3213ZM52.0229 25.6345C51.7932 25.6345 51.6077 26.0114 51.6077 26.4796C51.6077 26.9478 51.7932 27.3247 52.0229 27.3247C52.2525 27.3247 52.438 26.9448 52.438 26.4796C52.438 26.0144 52.2496 25.6345 52.0229 25.6345ZM47.8299 25.7906C47.8299 25.7906 47.8034 25.7906 47.7858 25.7906C48.1921 25.979 48.4954 26.7652 48.4954 27.7074C48.4954 28.6497 48.2009 29.4358 47.7858 29.6243C47.8034 29.6243 47.8152 29.6243 47.8299 29.6243C48.3688 29.6243 48.8075 28.7616 48.8075 27.6927C48.8075 26.6239 48.3688 25.7906 47.8299 25.7906ZM47.6709 27.0302C47.4825 27.0302 47.3323 27.3423 47.3323 27.7222C47.3323 28.102 47.4825 28.4141 47.6709 28.4141C47.8594 28.4141 48.0095 28.102 48.0095 27.7222C48.0095 27.3423 47.8564 27.0302 47.6709 27.0302ZM44.0345 27.4248C43.9786 27.4248 43.9285 27.4689 43.8755 27.4895C44.2583 27.4895 44.5675 28.1962 44.5675 29.0648C44.5675 29.9335 44.2583 30.6342 43.8755 30.6401C43.9285 30.6607 43.9786 30.7049 44.0345 30.7049C44.4938 30.7049 44.8649 29.9717 44.8649 29.0648C44.8649 28.1579 44.4938 27.4248 44.0345 27.4248ZM43.8991 28.5054C43.7489 28.5054 43.6282 28.7557 43.6282 29.0648C43.6282 29.374 43.7489 29.6243 43.8991 29.6243C44.0492 29.6243 44.1758 29.374 44.1758 29.0648C44.1758 28.7557 44.0522 28.5054 43.8991 28.5054ZM40.7603 28.3228C40.7603 28.3228 40.7603 28.3228 40.7397 28.3228C41.0105 28.4671 41.2196 29.0266 41.2196 29.7303C41.2196 30.434 41.0105 31.0023 40.7397 31.1436H40.7603C41.1548 31.1436 41.4758 30.5106 41.4758 29.7244C41.4758 28.9382 41.1548 28.3228 40.7603 28.3228ZM40.6454 29.2415C40.51 29.2415 40.3981 29.4623 40.3922 29.7362C40.3863 30.01 40.4982 30.2397 40.6336 30.2426C40.7691 30.2456 40.881 30.0218 40.8869 29.745C40.8928 29.4682 40.7809 29.2415 40.6454 29.2415ZM38.1515 28.8558C38.3231 29.1578 38.4134 29.4992 38.4134 29.8466C38.4134 30.194 38.3231 30.5354 38.1515 30.8374C38.4047 30.7726 38.602 30.3663 38.602 29.8451C38.602 29.3239 38.4047 28.9117 38.1515 28.8558ZM38.0013 29.4447C37.8924 29.4447 37.807 29.6213 37.807 29.8392C37.807 30.0571 37.8924 30.2338 38.0013 30.2338C38.1102 30.2338 38.1956 30.0601 38.1956 29.8392C38.1956 29.6184 38.1073 29.4447 38.0013 29.4447ZM45.2741 24.7335C45.2741 24.7335 51.3397 19.3481 57.9353 21.2973C52.0641 18.4 46.4048 22.5546 45.2741 24.7335ZM69.4865 28.9559L69.4512 28.9853C69.3982 28.7792 69.3304 28.2286 69.8869 27.4424C70.2785 26.8977 71.4504 26.0703 72.8314 25.5521C72.7124 25.1804 72.7198 24.7798 72.8524 24.4128C72.985 24.0458 73.2355 23.733 73.5646 23.5233C74.4037 23.0611 75.5285 22.9345 77.2746 22.534C79.0207 22.1336 78.6497 20.5877 78.6497 20.5877C78.6497 20.5877 78.9647 21.7655 78.5849 22.3986C78.205 23.0316 77.7575 23.2112 76.1498 23.5763C74.5421 23.9415 73.3643 24.0269 73.0699 24.7983C73.0369 24.9061 73.0332 25.0207 73.0591 25.1303C73.0849 25.24 73.1395 25.3409 73.2171 25.4225C74.2035 25.0567 75.2759 24.9901 76.3 25.2311C78.6938 25.9319 76.194 27.3659 74.0975 26.6268C73.6709 26.5002 73.2943 26.244 73.0198 25.8936C72.2985 26.1421 71.6148 26.4889 70.9882 26.9242C69.7397 27.8282 69.5365 28.6614 69.5012 28.9559H69.4865ZM75.7935 26.5326C77.0773 26.5326 76.9713 25.7111 75.9143 25.4844C75.1066 25.3888 74.2879 25.4743 73.5175 25.7346C74.1758 26.2289 74.9707 26.5076 75.7935 26.5326ZM33.6082 28.7998L33.564 28.7674C33.5316 28.473 33.3255 27.6397 32.0917 26.7358C31.465 26.3031 30.7826 25.9574 30.063 25.7081C29.785 26.0567 29.4068 26.3115 28.9794 26.4384C26.8859 27.1745 24.3831 25.7435 26.7799 25.0427C27.7428 24.7482 28.8411 24.9014 29.8598 25.2311C29.9375 25.1494 29.9922 25.0487 30.0186 24.9391C30.0449 24.8296 30.042 24.715 30.01 24.6069C29.7156 23.8384 28.5378 23.753 26.9301 23.385C25.3224 23.0169 24.869 22.8579 24.495 22.2072C24.1211 21.5564 24.4361 20.3993 24.4361 20.3993C24.4361 20.3993 24.0651 21.9304 25.8112 22.3456C27.5573 22.7607 28.6821 22.8726 29.5212 23.3378C29.8509 23.5471 30.1019 23.8597 30.2351 24.2268C30.3683 24.5938 30.3761 24.9946 30.2573 25.3666C31.6265 25.8819 32.7955 26.7093 33.2018 27.2569C33.7583 28.0402 33.6935 28.5908 33.6376 28.7998H33.6082ZM29.5418 25.5433C28.5937 25.2694 27.6986 25.1781 27.148 25.2959C26.0909 25.5256 25.9849 26.3412 27.2658 26.3471C28.0897 26.3227 28.8854 26.0417 29.5418 25.5433ZM87.1327 27.7899C84.571 24.5922 79.3534 25.8348 72.7342 29.1885C63.4385 33.8997 60.8945 34.4503 54.6994 33.511C59.8286 35.8342 65.005 34.5239 71.5564 31.0759H71.5712L71.9628 30.8669C72.1188 30.7785 72.272 30.6961 72.4192 30.6195L72.4898 30.5812C75.2488 29.1414 76.7505 29.3652 77.5808 30.0895C78.7144 31.07 77.5043 33.7171 75.452 33.3284C73.3997 32.9398 74.4332 31.5411 75.452 31.4911C75.452 31.4911 75.1399 30.5488 74.021 31.2349C72.9021 31.921 73.597 33.4757 75.3048 33.7289C77.413 34.038 79.9835 32.0387 77.9872 30.119C77.1745 29.3387 76.1321 29.0884 74.9014 29.2592C82.0034 25.5609 85.1304 26.1321 86.5084 27.6839C87.9807 29.3446 85.7017 32.9986 82.769 32.0299C79.8363 31.0612 81.6118 29.2121 83.1311 29.3357C83.1311 29.3357 82.8514 27.8959 81.07 28.685C79.2886 29.4741 80.0188 31.8974 82.4775 32.5894C85.5427 33.4315 89.6944 30.9876 87.1327 27.7899ZM71.5712 31.0671C71.6742 31.017 71.7684 30.967 71.848 30.9228L71.9628 30.858L71.5712 31.0671ZM41.6436 29.0295C41.6659 29.1364 41.6816 29.2446 41.6907 29.3534C41.683 29.2444 41.6673 29.1362 41.6436 29.0295ZM46.5726 27.6927C46.5726 27.6427 46.5726 27.5926 46.5726 27.5425C46.5756 27.5926 46.5726 27.6427 46.5726 27.6927ZM46.6198 27.1038C46.5969 27.2461 46.5831 27.3897 46.5785 27.5337C46.5785 27.3865 46.605 27.2393 46.6256 27.1009L46.6198 27.1038ZM48.7604 29.2415C48.7936 29.1799 48.8221 29.116 48.8458 29.0501C48.8222 29.1237 48.7928 29.1885 48.7604 29.2503V29.2415ZM59.5401 31.8002C59.172 32.3891 58.4035 33.614 57.4554 33.3991C57.8441 33.1282 58.2092 32.5158 58.5154 31.6884C55.3589 31.5176 50.6095 33.72 47.9507 33.3019C50.424 33.0075 54.7229 30.8345 58.8452 30.6902C58.9423 30.3457 59.0336 29.9835 59.1102 29.6125C56.3086 29.5532 53.5198 30.0052 50.8804 30.9464C47.3117 32.2066 39.7297 33.9762 36.8471 31.653C41.3138 33.0752 46.0073 31.8621 50.4564 30.1278C50.9187 29.9482 51.378 29.7833 51.8285 29.642C51.3843 29.4049 51.0228 29.0383 50.7921 28.5908L50.6713 28.6261L49.9529 28.8617C49.6584 29.9187 48.9459 30.6607 48.1214 30.6607C47.8527 30.647 47.591 30.57 47.3576 30.4359C47.1243 30.3019 46.9259 30.1146 46.7788 29.8893C46.449 29.9894 46.1162 30.0895 45.7776 30.1837C45.5067 30.9935 44.9385 31.55 44.2818 31.55C44.0433 31.5392 43.8111 31.47 43.6057 31.3483C43.4003 31.2266 43.228 31.0562 43.1041 30.8521C42.8076 30.9169 42.5132 30.9729 42.2207 31.02C41.9469 31.6089 41.4905 31.9887 40.9752 31.9887C40.7393 31.9739 40.5113 31.8977 40.314 31.7675C40.1167 31.6373 39.9569 31.4578 39.8504 31.2467C39.5425 31.2482 39.2348 31.2315 38.9288 31.1966C38.8461 31.2981 38.7426 31.3805 38.6252 31.4385C38.5079 31.4964 38.3794 31.5284 38.2486 31.5323C38.0427 31.5139 37.8463 31.4375 37.6821 31.3118C37.5179 31.1862 37.3927 31.0166 37.3211 30.8227C37.0318 30.7066 36.7595 30.5521 36.5114 30.3633C36.745 30.4419 36.9805 30.5096 37.2181 30.5665C37.1436 30.3323 37.1058 30.088 37.1062 29.8422C37.1058 29.7437 37.1127 29.6452 37.1268 29.5477C36.7991 29.4369 36.491 29.2749 36.214 29.0678C36.5294 29.1854 36.8546 29.2751 37.1857 29.3357C37.2188 29.126 37.2931 28.9249 37.4043 28.744C37.5155 28.5631 37.6613 28.4059 37.8335 28.2816C35.7723 27.8076 35.4484 26.4354 35.4484 26.4354L35.9902 25.187C35.5809 24.127 34.7153 24.3714 34.7153 24.3714L35.2306 25.5668L34.9449 26.5002C34.9449 26.5002 34.2942 31.4263 38.0749 33.087C41.3138 34.1087 43.6871 34.0734 47.3294 33.5198C42.2502 35.8194 37.1121 34.5563 30.6607 31.1819L30.6254 31.1642C30.4428 31.0818 30.2838 31.0023 30.1602 30.9316C26.9831 29.1061 25.3136 29.3033 24.4185 30.0836C23.2848 31.0641 24.495 33.7112 26.5473 33.3225C28.5996 32.9339 27.569 31.5352 26.5473 31.4852C26.5473 31.4852 26.8624 30.543 27.9783 31.229C29.0943 31.9151 28.4053 33.4698 26.6945 33.723C24.5863 34.0322 22.0158 32.0329 24.0121 30.1131C24.8277 29.3269 25.8789 29.0796 27.1185 29.2562C20.0194 25.5403 16.8777 26.1145 15.4997 27.678C14.0274 29.3387 16.3065 32.9928 19.2421 32.024C22.1777 31.0553 20.3993 29.2062 18.877 29.3298C18.877 29.3298 19.1567 27.89 20.9381 28.6791C22.7195 29.4682 21.9893 31.8915 19.5277 32.5835C16.4861 33.4315 12.3314 30.9876 14.8961 27.7899C17.4607 24.5922 22.6695 25.8348 29.2916 29.1885C31.8562 30.487 33.9055 31.4705 35.6604 32.1919C33.3549 29.7421 34.2383 25.3519 34.2383 25.3519L33.829 24.1741C36.2493 22.1983 37.2534 25.0928 37.2534 25.0928L36.4672 26.3972C37.3093 27.6191 40.1714 28.6408 44.8619 25.6375C50.4917 22.0423 56.8253 21.6801 60.2409 22.5163C62.034 25.24 60.7238 29.9217 59.5401 31.8002ZM44.5792 26.618C44.8067 26.6937 45.0159 26.8157 45.1938 26.9764C45.3717 27.137 45.5143 27.3328 45.6127 27.5514C45.7953 27.4748 45.9779 27.3953 46.1575 27.3129C46.2045 26.6435 46.4449 26.0021 46.8494 25.4667C46.0426 25.8495 45.2889 26.247 44.5792 26.618ZM41.8821 27.9283C42.107 28.183 42.272 28.4848 42.365 28.8116L42.6212 28.7292C42.6554 28.2663 42.7944 27.8173 43.0275 27.4159C42.6329 27.6103 42.2502 27.784 41.8821 27.9283ZM38.8228 29.7774C38.8185 29.6786 38.8076 29.5803 38.7904 29.483H38.8051C38.7197 28.9353 38.4371 28.5319 38.1044 28.5319C37.7716 28.5319 37.5302 28.8852 37.4301 29.3769C37.4177 29.4559 37.4098 29.5356 37.4065 29.6155C37.402 29.69 37.402 29.7647 37.4065 29.8392C37.4035 30.1106 37.4545 30.3799 37.5567 30.6313C37.6084 30.7577 37.6844 30.8728 37.7805 30.9699H37.7451C37.7906 31.0247 37.8472 31.0693 37.9111 31.1008C37.9751 31.1322 38.0449 31.1498 38.1161 31.1525C38.1829 31.153 38.2486 31.1368 38.3075 31.1054H38.2634C38.4069 31.0494 38.5266 30.9453 38.602 30.8109C38.7654 30.5201 38.8468 30.1904 38.8375 29.8569L38.8228 29.7774ZM39.6649 30.8462C39.5333 30.4961 39.4665 30.125 39.4676 29.7509H39.3999C39.4014 29.7784 39.4014 29.8059 39.3999 29.8333C39.4038 30.1789 39.3272 30.5207 39.1761 30.8315C39.341 30.8413 39.504 30.8462 39.6649 30.8462ZM39.7533 28.4318C39.4649 28.4481 39.1759 28.4481 38.8876 28.4318C39.1535 28.7133 39.3226 29.0722 39.3705 29.4565H39.4824C39.5071 29.1015 39.5969 28.7542 39.7474 28.4318H39.7533ZM42.8832 30.437C42.6945 30.0152 42.5942 29.5592 42.5888 29.0972L42.4327 29.1414C42.1824 29.218 41.9351 29.2857 41.6878 29.3505C41.6761 29.2422 41.6564 29.1349 41.6289 29.0295C41.5639 28.7043 41.4016 28.4066 41.1637 28.1756C41.0903 28.1134 41.0066 28.0646 40.9163 28.0313L40.8368 28.0107H40.7544C40.7003 28.0106 40.6465 28.0196 40.5954 28.0372C40.4232 28.111 40.2775 28.2352 40.1773 28.3935H40.1478C39.9559 28.6981 39.8407 29.0446 39.8121 29.4035H39.8298C39.8117 29.5087 39.7999 29.6148 39.7945 29.7215V29.7391C39.7891 30.1177 39.8644 30.4931 40.0153 30.8404C40.0811 30.9864 40.1718 31.1199 40.2833 31.2349H40.2568C40.3165 31.3065 40.3906 31.3647 40.4743 31.4058C40.558 31.4469 40.6494 31.4699 40.7426 31.4734C40.8557 31.4665 40.9657 31.4334 41.0638 31.3767C41.162 31.32 41.2455 31.2412 41.3079 31.1466H41.2726C41.383 31.0099 41.4696 30.8556 41.5288 30.6902H41.5494C41.8262 30.647 42.1029 30.5969 42.3797 30.54C42.5623 30.5106 42.7213 30.4752 42.8832 30.437ZM46.4666 29.3416C46.2617 28.8772 46.1507 28.3769 46.1398 27.8694C46.025 27.9106 45.9072 27.9548 45.7924 28.0019L45.015 28.2963C44.9771 28.1557 44.9269 28.0188 44.8649 27.8871H44.8825C44.6852 27.4454 44.382 27.1627 44.0433 27.1627C43.5457 27.1627 43.1276 27.781 43.0098 28.6143H43.0304C43.0128 28.7409 42.9922 28.8676 42.9863 29.003C42.9848 29.0305 42.9848 29.058 42.9863 29.0854C42.9792 29.5299 43.0739 29.97 43.2631 30.3722C43.3372 30.5235 43.4368 30.6609 43.5575 30.7785H43.5369C43.6663 30.9144 43.844 30.9937 44.0316 30.9994C44.1887 30.9856 44.3394 30.93 44.4678 30.8384C44.5962 30.7467 44.6977 30.6223 44.7618 30.4782C44.8773 30.2852 44.9627 30.0757 45.015 29.8569C45.3095 29.7568 45.6245 29.6537 45.9278 29.5625L46.4666 29.3416ZM50.477 27.8311C50.3469 27.3914 50.2815 26.9352 50.2827 26.4767C50.2827 26.4384 50.2827 26.3971 50.2827 26.3589L49.9146 26.4737L49.7379 26.5326C49.6143 26.5709 49.4906 26.615 49.364 26.6592L48.9812 26.7947C48.9545 26.687 48.9221 26.5808 48.884 26.4767C48.8687 26.4269 48.849 26.3786 48.8252 26.3324C48.8046 26.2853 48.7839 26.2411 48.7604 26.1969C48.5337 25.7376 48.2009 25.452 47.8299 25.452C47.241 25.452 46.7611 26.1557 46.6139 27.1127C46.591 27.2549 46.5772 27.3985 46.5726 27.5425C46.5726 27.5926 46.5726 27.6427 46.5726 27.6927V27.7222C46.5623 28.2285 46.6628 28.731 46.8671 29.1944C46.9609 29.3983 47.0917 29.583 47.2528 29.7391C47.4096 29.8952 47.6205 29.9848 47.8417 29.9894C48.2127 29.9894 48.5454 29.695 48.7722 29.2474C48.8054 29.1858 48.8339 29.1218 48.8575 29.056C48.8782 29.003 48.8988 28.95 48.9164 28.897C48.9724 28.7259 49.0147 28.5507 49.0431 28.3729L50.1001 27.9724L50.2827 27.9047L50.477 27.8311ZM51.1189 23.8914C50.1732 24.1273 49.2462 24.4324 48.3452 24.8042C48.6261 24.8699 48.8888 24.9976 49.114 25.1779C49.3392 25.3583 49.5212 25.5867 49.6467 25.8465C49.8027 25.7876 49.9588 25.7288 50.1119 25.6758L50.3651 25.5904C50.4689 24.9695 50.7282 24.385 51.1189 23.8914ZM53.6394 26.4767C53.6406 26.212 53.6169 25.9478 53.5687 25.6875C53.5199 25.4053 53.4358 25.1303 53.3184 24.869C53.0564 24.2801 52.6559 23.9061 52.2054 23.9061C51.6165 23.9061 51.1248 24.5245 50.901 25.4166C50.901 25.4373 50.901 25.4579 50.8863 25.4785C50.8716 25.4991 50.8686 25.5668 50.8598 25.608C50.8211 25.8092 50.7965 26.0129 50.7862 26.2175C50.7862 26.3 50.7862 26.3883 50.7862 26.4737C50.7779 26.8803 50.8285 27.2859 50.9363 27.678C51.014 27.9507 51.131 28.2106 51.2838 28.4494C51.3741 28.6198 51.5059 28.7647 51.667 28.8707C51.8281 28.9767 52.0132 29.0404 52.2054 29.056C52.6883 29.056 53.1152 28.6232 53.3832 27.9607C53.4126 27.8871 53.4391 27.8105 53.4627 27.7339C53.4863 27.6574 53.5098 27.5749 53.5275 27.4925C53.5695 27.3211 53.5991 27.147 53.6158 26.9713C53.633 26.807 53.6409 26.6419 53.6394 26.4767ZM54.4461 24.71C56.0896 24.5291 57.7491 24.5518 59.387 24.7777C59.3383 24.3937 59.1957 24.0276 58.9718 23.7118C57.1684 23.3526 55.3212 23.2662 53.4921 23.4556C53.9254 23.782 54.2564 24.2254 54.4461 24.7335V24.71ZM59.4105 27.7192C57.8145 27.5468 56.2038 27.5606 54.611 27.7604C54.4866 28.2231 54.2681 28.6551 53.9691 29.0295C55.7285 28.614 57.5267 28.385 59.334 28.3464C59.3605 28.1462 59.387 27.9371 59.4105 27.728V27.7192ZM59.49 25.8289C57.9105 25.5576 56.3045 25.4736 54.7053 25.5786C54.7598 25.8699 54.7874 26.1656 54.7877 26.4619C54.7877 26.5591 54.7877 26.6563 54.7877 26.7564C56.3461 26.5187 57.9257 26.4506 59.4989 26.5532C59.5028 26.3059 59.4998 26.0674 59.49 25.8377V25.8289Z" fill="#919399"/>
</svg>
