<svg width="591" height="321" viewBox="0 0 591 321" fill="none" xmlns="http://www.w3.org/2000/svg">
<path opacity="0.03" fill-rule="evenodd" clip-rule="evenodd" d="M37.4487 1.75131C37.4487 1.75131 19.7162 5.21927 19.142 17.7906C18.4981 32.6334 0 271.073 0 271.073H21.7348L23.6491 239.861L39.4325 236.081L41.2945 270.76H65.1872L45.6623 0L37.4487 1.73397V1.75131ZM24.7802 219.452L31.0622 120.061H33.5159L38.4058 215.915L24.7802 219.452ZM157.678 67.2089C170.016 68.7175 169.494 85.4504 169.25 88.8489V251.236C169.494 254.704 170.016 271.35 157.678 272.876C152.805 273.465 142.59 269.009 132.932 264.483V307.261C132.932 313.763 126.877 316.867 120.751 318.583C117.54 319.513 114.266 320.209 110.954 320.664V264.709C101.226 269.252 90.9418 273.743 86.0693 273.153C72.3393 271.419 74.5319 250.872 74.5319 250.872V89.2998C74.5319 89.2998 72.3393 68.7175 86.0693 67.0182C90.9418 66.4113 101.226 70.937 110.954 75.48V57.9148C110.954 51.4471 117.01 48.3433 123.135 46.6093C126.356 45.6761 129.642 44.9863 132.967 44.5458V75.6187C142.625 71.093 152.84 66.6367 157.713 67.2089H157.678ZM99.8167 250.005C96.6148 249.814 96.5278 245.687 96.5626 244.3V94.9872C96.5626 93.2532 97.1543 90.3402 99.8167 90.2015C102.479 90.0627 108.291 92.9931 110.954 94.1549V246.034C108.291 247.23 102.601 250.178 99.8167 250.039V250.005ZM143.913 249.814C141.198 249.97 135.63 247.092 132.932 245.895V94.2763C135.63 93.0625 141.198 90.2015 143.913 90.3575C147.759 90.5483 147.15 96.5478 147.15 96.5478V243.658C147.15 243.658 147.759 249.502 143.913 249.814ZM235.742 109.535V250.768C235.707 257.784 237.068 264.739 239.745 271.229H217.923C217.682 269.885 217.333 268.563 216.879 267.275C216.477 266.189 216.152 265.077 215.904 263.946C215.904 263.946 202.226 272.304 195.77 272.061C185.086 271.697 180.753 264.327 180.753 247.178V216.435C180.753 191.552 183.902 178.287 203.862 141.77C223.822 105.252 209.448 86.7855 199.459 88.3287C193.264 89.2998 187.626 97.7269 187.626 97.7269L181.797 75.8268C188.893 70.6864 197.608 68.2615 206.351 68.9949C225.388 70.7289 235.742 84.8781 235.742 109.535ZM214.147 245.254C214.147 245.913 209.57 248.167 207.186 249.051C205.446 249.71 203.166 248.791 203.166 244.092V186.749C203.166 175.218 205.498 174.802 208.021 168.109C209.761 162.935 211.019 157.612 211.78 152.208H214.112L214.147 245.254ZM376.732 109.535V250.768C376.697 257.784 378.057 264.739 380.734 271.229H358.877C358.65 269.884 358.306 268.561 357.851 267.275C357.446 266.192 357.126 265.079 356.894 263.946C356.894 263.946 343.198 272.304 336.777 272.061C326.058 271.697 321.742 264.327 321.742 247.178V216.435C321.742 191.552 324.874 178.287 344.834 141.77C364.794 105.252 350.42 86.7855 340.432 88.3287C334.219 89.2998 328.581 97.7269 328.581 97.7269L322.769 75.8268C329.874 70.6784 338.603 68.253 347.357 68.9949C366.36 70.7289 376.732 84.8781 376.732 109.535ZM355.101 245.254C355.101 245.913 349.289 248.722 346.94 249.537C345.2 250.195 344.19 248.774 344.19 241.699V186.749C344.19 175.218 346.522 174.802 349.028 168.109C350.769 162.934 352.033 157.612 352.804 152.208H355.101V245.254ZM287.008 159.474H272.39V70.226H250.325V271.073H272.39V176.345H287.008V271.073H309.056V70.226H287.008V159.474ZM484.223 163.583H483.057V70.226H461.009V271.073H467.569C467.569 271.073 478.115 268.818 480.098 259.455C480.916 255.64 479.907 260.339 495.882 174.681H497.622V271.073H519.67V70.226H501.833L484.223 163.583ZM573.128 70.226L555.518 163.583H554.352V70.226H532.286V271.073H538.882C538.882 271.073 549.323 268.818 551.394 259.455C552.211 255.64 551.185 260.339 567.177 174.681H568.917V271.073H591V70.226H573.128ZM444.755 243.381C444.755 243.381 438.978 253.109 428.363 254.114C417.748 255.12 414.65 248.236 413.519 245.202C412.811 242.755 412.454 240.222 412.458 237.676V102.27C412.452 99.724 412.809 97.1901 413.519 94.7445C414.65 91.71 418.618 84.67 429.181 85.6411C435.24 86.1148 440.867 88.9496 444.842 93.5307L448.932 73.3819C448.932 73.3819 440.318 66.446 422.829 67.1916C405.34 67.9372 395.769 78.2717 392.289 87.9993C390.659 92.5001 389.972 97.2861 390.27 102.062V237.954C389.971 242.735 390.658 247.527 392.289 252.033C395.769 261.692 405.305 272.078 422.829 272.841C440.353 273.604 449.175 266.183 449.175 266.183L446.252 243.277L444.755 243.381ZM577.496 41.8062C586.65 30.57 582.717 20.3916 582.717 20.3916C577.137 25.149 570.724 28.8405 563.801 31.2809C556.068 34.0954 548.102 36.2306 539.995 37.662L545.547 56.1461C545.547 56.1461 568.36 53.025 577.496 41.8062Z" fill="#2C2D2E"/>
</svg>
